<svg xmlns="http://www.w3.org/2000/svg" viewBox="0 0 500 357" preserveAspectRatio="xMidYMid meet"><path d="M240.9 330.7L241.5 331.0L242.0 332.0L241.7 332.6L242.5 333.0L243.1 332.6L243.7 332.4L244.6 332.5L245.2 333.0L245.0 334.1L245.8 334.1L245.9 333.4L246.2 332.8L247.4 332.5L248.5 332.7L249.2 333.2L249.6 332.8L250.3 332.9L250.8 333.2L252.2 333.8L252.5 334.3L253.1 334.5L253.7 334.1L254.3 333.7L254.9 333.7L255.0 334.4L254.9 335.6L254.3 337.1L254.0 337.6L253.6 336.8L253.0 336.6L251.8 335.0L251.3 334.6L251.2 335.4L251.4 336.0L251.5 336.7L251.8 337.7L251.6 338.3L251.3 337.5L250.8 337.0L250.3 336.5L250.1 335.8L249.7 334.6L248.9 334.3L248.5 335.1L247.9 335.4L247.3 335.2L246.7 335.4L246.5 336.0L246.9 336.5L246.1 337.2L245.5 337.6L246.1 338.4L245.4 338.6L244.3 338.6L243.8 338.9L243.5 339.5L243.5 340.5L243.0 340.9L242.1 341.4L241.4 342.0L240.7 342.1L240.4 342.7L239.5 343.3L238.8 343.2L238.2 343.1L237.7 343.5L237.1 343.9L236.5 344.2L235.6 344.2L235.2 343.6L234.6 343.3L234.1 343.9L233.3 344.2L233.2 343.5L233.4 342.9L233.3 342.1L232.7 341.3L231.8 340.1L232.2 339.6L232.6 339.1L232.7 338.4L232.3 338.0L231.8 338.3L231.7 337.7L232.3 337.5L232.8 337.2L232.8 336.6L232.7 335.9L232.3 335.5L231.8 335.0L232.3 334.6L232.9 334.3L234.1 333.6L234.2 332.9L234.7 332.3L235.3 332.2L235.8 331.8L236.3 331.4L237.2 331.1L238.3 330.2L238.6 329.7L239.2 329.7L240.1 330.1L240.9 330.7ZM261.5 325.5L262.0 326.0L262.7 326.5L263.6 326.5L264.2 326.6L264.4 327.3L264.9 327.8L265.8 328.0L266.6 328.6L267.5 329.6L267.1 330.6L266.6 331.0L265.5 331.2L263.7 331.3L262.1 331.7L261.7 332.4L261.9 333.3L262.1 333.9L262.6 334.2L263.2 333.9L264.2 334.4L264.0 335.0L264.3 335.7L264.4 337.4L264.6 337.9L265.2 337.7L265.8 337.3L266.4 337.0L266.9 337.4L266.8 338.8L266.7 339.8L266.1 340.0L265.7 339.5L265.0 338.5L264.4 338.9L264.6 339.5L264.9 340.7L265.1 341.3L265.1 342.0L264.5 342.4L263.9 343.0L264.4 343.7L264.5 344.4L263.8 344.9L263.3 345.3L263.4 345.9L263.3 346.6L262.6 346.9L262.5 346.2L261.9 345.8L261.1 346.0L260.7 345.6L261.2 345.4L261.2 344.7L260.7 344.3L260.8 343.3L261.1 342.7L260.7 342.2L260.0 342.0L259.1 343.0L258.6 343.7L257.8 342.8L258.1 342.2L257.8 341.1L256.9 340.3L257.3 339.8L257.1 338.8L256.7 338.4L256.7 337.5L257.4 337.6L257.9 337.2L258.2 336.3L258.7 334.8L259.1 334.2L259.8 333.8L260.5 333.2L261.0 332.6L261.0 332.0L260.1 331.2L259.3 331.1L258.8 330.5L257.8 330.0L258.2 329.6L258.9 329.3L258.6 328.8L257.9 328.7L257.4 328.1L258.0 327.9L258.4 328.4L259.1 328.5L260.0 327.4L260.3 326.8L259.8 325.8L260.4 325.3L261.3 325.3L261.5 325.5ZM308.3 320.8L308.4 321.4L308.9 321.9L309.5 322.1L310.2 322.2L310.7 321.9L311.4 321.6L312.0 321.8L312.6 323.3L312.1 323.9L311.3 324.3L311.4 325.0L311.7 325.6L312.2 326.1L312.5 326.9L312.4 328.0L311.8 328.7L312.1 329.3L312.7 329.0L313.3 328.3L314.0 328.2L315.1 327.3L315.8 327.6L314.8 328.2L314.3 328.6L314.6 329.2L314.9 330.1L315.1 331.2L314.7 331.7L314.3 332.3L313.9 333.4L313.7 334.9L313.2 336.3L312.5 336.4L311.9 336.8L311.1 336.1L309.1 336.2L307.8 336.9L306.9 337.1L306.4 337.4L305.9 336.9L306.5 336.5L306.1 336.0L305.1 335.1L304.6 334.6L304.6 333.8L304.2 333.4L303.3 333.4L302.3 334.3L302.3 334.9L302.3 335.7L301.9 336.3L301.8 336.9L301.0 336.1L300.7 334.6L299.9 334.2L300.4 333.4L301.0 333.4L302.1 332.6L302.0 331.9L301.4 331.6L301.1 332.2L300.5 332.7L299.9 331.9L299.7 331.3L300.4 330.4L301.3 330.4L301.8 329.9L301.1 329.6L300.8 328.6L301.4 328.2L301.7 327.5L302.4 326.7L302.6 326.1L302.5 325.5L301.8 325.4L302.3 324.9L302.9 324.8L304.0 324.4L304.6 324.0L304.9 323.4L304.9 322.5L305.4 321.9L306.0 322.1L307.0 321.9L306.9 321.2L307.5 320.9L308.1 320.8L308.3 320.8ZM244.4 316.8L243.9 317.6L244.9 318.4L245.2 319.5L245.9 318.5L246.4 318.2L247.0 318.5L247.7 319.1L248.5 319.5L249.1 319.3L249.3 318.6L250.9 318.9L252.1 319.1L252.1 319.7L252.2 320.4L252.9 320.5L253.7 321.2L253.8 321.9L254.1 322.8L254.7 323.2L255.3 323.4L255.7 324.1L255.1 325.1L254.5 325.2L253.9 325.4L252.9 326.0L252.1 325.0L251.3 325.1L252.0 326.4L253.0 327.0L253.4 328.0L253.7 328.9L253.5 329.6L251.8 329.7L250.9 329.5L250.3 329.2L250.5 328.3L250.7 327.7L250.0 327.4L248.9 327.3L248.1 327.3L247.5 329.0L247.5 329.7L248.8 331.3L248.3 331.8L247.8 331.4L247.1 331.2L246.2 331.2L245.3 331.0L244.3 330.8L243.5 330.5L243.0 329.6L243.1 328.7L243.6 328.2L242.4 327.4L241.8 327.6L240.7 327.8L240.3 327.3L240.9 326.8L241.6 326.7L242.1 326.3L241.9 325.6L242.1 324.9L242.5 324.4L242.0 324.2L241.4 324.0L242.7 323.6L243.3 322.3L243.3 321.6L242.7 321.4L242.4 322.0L242.2 322.5L241.7 322.2L242.1 321.6L242.3 321.1L242.8 320.6L243.9 320.7L244.2 320.1L244.3 319.3L243.8 318.6L243.1 318.9L242.9 318.2L243.1 317.6L243.2 317.0L242.6 317.3L241.5 317.0L242.2 316.9L242.9 316.8L243.5 316.4L244.2 316.6L244.4 316.8ZM335.9 290.9L335.6 291.5L334.9 291.6L334.2 291.2L333.6 291.3L334.2 290.9L334.8 291.0L335.4 291.1L335.9 290.9ZM298.1 297.6L297.4 296.5L297.1 295.2L296.6 294.5L296.0 294.3L295.3 294.1L294.6 294.0L293.5 294.0L292.5 294.0L291.9 294.1L291.3 294.2L290.2 294.7L289.3 296.3L288.9 296.8L288.5 296.2L288.5 295.6L288.0 295.1L287.4 294.7L286.9 294.2L286.4 293.7L285.8 293.7L284.9 293.6L283.7 292.8L283.0 292.5L282.3 292.5L281.4 292.5L280.9 292.2L281.5 291.8L282.1 291.8L282.4 291.2L283.2 291.3L283.8 291.6L285.7 292.4L286.3 292.1L287.1 290.9L287.3 290.0L287.7 289.4L288.5 289.6L288.9 290.0L289.7 291.1L290.4 292.0L290.9 292.4L291.6 292.3L292.4 292.0L293.1 291.7L293.7 291.6L294.3 291.2L294.1 290.6L293.9 289.8L294.0 288.9L295.1 287.7L295.7 287.2L296.7 286.5L297.2 286.2L299.0 288.9L299.8 289.8L300.5 289.3L300.6 288.6L301.4 288.0L301.5 289.5L302.1 289.9L302.4 289.3L303.3 288.5L303.9 288.3L304.6 288.5L305.3 288.9L305.9 290.7L306.2 291.6L307.2 291.1L308.0 290.5L308.5 289.9L309.4 289.6L310.0 290.3L309.6 290.8L309.6 291.8L309.7 292.4L309.3 293.0L308.4 292.8L308.2 292.2L306.8 292.6L306.4 293.1L306.1 294.2L306.7 294.8L307.4 295.1L307.4 295.8L307.0 296.8L306.6 297.8L305.4 298.3L304.6 298.3L305.1 297.7L304.3 295.4L303.6 295.1L302.9 295.3L303.0 296.1L303.6 297.1L303.0 297.1L301.6 298.0L301.2 298.5L300.7 299.1L300.1 299.4L299.1 300.8L298.5 300.7L297.6 299.1L298.0 298.5L298.3 298.0L298.1 297.6ZM335.9 290.9L336.4 290.5L336.4 289.8L335.7 289.3L334.9 288.3L334.2 288.3L333.8 287.5L333.0 287.2L332.2 287.2L332.3 288.0L331.7 288.5L329.8 287.7L329.4 287.1L328.6 287.1L327.9 286.7L327.1 286.1L327.8 285.5L328.6 285.9L329.1 286.7L330.3 286.5L331.1 286.7L332.1 285.3L332.2 284.7L331.5 284.6L331.8 283.9L332.7 284.5L333.3 283.8L332.3 282.8L332.7 281.7L334.1 281.8L334.6 282.3L335.2 282.7L335.9 281.8L335.8 280.9L336.4 281.4L336.3 282.2L336.9 282.4L337.4 283.4L337.9 283.9L338.7 283.7L339.0 284.2L338.6 284.9L338.3 285.4L339.0 286.0L338.5 286.5L338.7 287.9L339.3 288.2L339.8 287.7L340.7 287.5L341.3 287.6L342.2 287.1L342.6 286.7L342.9 285.9L343.6 286.0L344.4 285.6L345.0 285.5L345.0 286.1L345.5 286.3L346.4 286.4L346.6 287.2L346.3 287.7L347.0 288.4L347.8 289.3L348.2 289.9L348.9 290.3L349.3 290.9L350.0 291.3L349.2 291.9L348.6 291.9L347.8 291.5L347.5 290.7L347.1 290.0L346.5 289.8L345.8 289.8L344.5 289.7L343.5 289.0L342.4 290.3L342.9 291.0L343.5 291.3L344.0 290.9L345.0 291.1L345.5 291.4L345.2 292.7L344.7 293.0L343.8 292.2L343.2 292.3L342.5 292.5L341.8 292.8L341.2 293.2L340.8 293.6L341.1 294.2L341.0 294.9L340.4 294.7L339.7 294.9L339.4 295.6L338.4 296.5L338.5 297.1L338.4 298.5L337.8 298.1L337.6 297.0L337.3 295.6L337.2 294.7L337.6 294.1L339.0 293.6L339.7 293.6L340.3 293.3L340.5 292.7L340.7 292.1L340.6 291.5L340.3 290.9L338.7 290.5L337.5 290.8L337.1 291.3L337.1 292.0L336.6 292.8L335.7 292.4L335.9 291.8L336.4 291.4L336.1 290.9L335.9 290.9ZM269.4 276.5L270.0 276.6L270.8 276.5L271.2 277.0L272.1 277.6L272.7 278.0L273.0 278.5L273.3 279.1L274.0 279.2L274.6 279.4L274.4 279.9L275.2 280.2L275.8 280.4L276.3 280.9L276.7 282.4L277.1 283.0L277.2 284.0L276.6 284.8L276.4 285.4L277.0 286.3L276.7 287.0L276.8 288.0L277.4 288.2L278.0 288.6L278.4 289.8L277.7 290.0L278.5 291.6L279.1 291.6L279.2 292.5L280.0 293.8L280.6 294.1L280.3 294.7L280.1 295.3L280.5 295.9L281.3 296.7L282.0 296.9L282.8 296.3L283.6 296.1L284.1 296.8L284.5 297.5L284.2 298.6L283.9 299.3L283.2 299.6L282.7 300.1L282.9 300.9L283.6 301.1L284.5 301.8L284.9 302.4L285.3 302.9L285.9 303.5L284.7 303.8L284.1 303.3L283.8 302.8L282.5 302.4L282.0 302.9L281.0 302.9L280.2 302.7L278.7 301.7L279.2 301.4L278.6 300.7L278.0 300.4L277.5 300.0L276.9 300.2L277.3 301.5L277.7 302.4L277.6 303.1L278.1 303.5L276.9 303.8L275.2 302.4L274.7 301.9L274.1 301.4L272.5 301.1L271.2 301.3L269.7 302.3L268.9 301.7L268.3 301.4L268.0 300.9L267.9 300.3L267.3 299.9L266.7 299.7L266.7 299.1L266.1 297.1L265.7 296.6L265.1 296.9L264.5 296.4L264.4 295.8L264.6 295.2L263.9 294.7L262.8 294.1L262.2 293.6L261.7 294.0L261.7 293.4L261.3 292.9L260.8 293.2L260.6 293.8L259.8 293.7L260.1 293.1L260.5 292.4L260.1 291.2L259.7 290.8L259.6 289.9L259.8 289.1L259.7 287.9L259.5 287.3L259.3 286.7L258.9 285.5L259.0 284.8L259.4 284.2L259.5 283.5L259.0 282.8L258.9 281.7L258.5 281.1L258.5 280.5L258.8 279.9L259.3 279.4L259.9 279.1L260.2 278.2L260.4 277.6L261.2 277.7L262.1 277.6L263.5 276.9L264.0 277.2L264.7 277.1L264.8 275.8L265.6 276.2L266.4 276.1L267.0 275.7L267.9 275.5L268.2 276.1L269.1 276.8L269.4 276.5ZM318.7 277.8L318.6 278.9L318.4 279.5L317.8 279.8L317.2 280.0L317.9 280.4L318.5 280.7L319.4 281.4L319.9 282.7L319.9 283.4L319.7 284.0L317.9 284.4L317.3 284.0L316.6 283.4L316.0 283.3L314.8 284.3L314.8 284.9L315.0 285.5L314.4 286.1L313.9 286.5L313.0 287.0L312.6 286.3L311.8 286.3L311.8 286.9L311.5 287.4L310.4 286.9L309.9 286.3L309.1 285.8L308.4 285.8L308.1 286.3L307.6 285.7L307.8 285.1L307.6 284.5L306.9 284.3L306.1 284.1L304.4 283.9L303.7 283.5L303.0 282.6L303.1 281.7L303.2 280.8L303.4 279.8L303.8 278.9L304.4 278.0L304.6 276.7L304.5 276.1L303.6 275.1L302.7 274.7L303.1 273.5L304.0 273.9L304.6 274.0L305.0 274.5L304.5 274.8L304.3 275.5L305.8 276.3L306.4 275.6L306.5 275.0L306.5 274.4L307.0 274.8L307.4 275.3L307.9 275.8L308.3 276.5L309.0 277.1L309.5 276.8L309.0 275.9L309.2 275.3L309.8 275.5L309.8 276.1L310.2 276.6L310.7 276.0L311.0 275.5L311.7 275.5L311.4 276.1L312.2 276.9L312.8 277.4L312.6 278.1L313.4 278.2L314.0 277.8L314.6 277.5L314.6 278.1L315.7 278.0L316.2 278.4L317.1 278.1L317.1 277.5L317.9 276.1L318.4 275.6L318.7 275.1L318.6 273.4L319.1 273.1L319.6 273.6L320.0 274.3L320.3 275.0L320.1 275.6L319.5 276.3L319.1 276.8L318.7 277.3L318.7 277.8ZM296.9 267.0L296.9 267.8L297.1 268.4L297.8 268.3L298.0 267.7L299.3 268.6L299.2 269.2L298.8 269.7L298.6 270.4L299.0 271.0L298.3 271.3L297.2 271.1L296.0 270.6L295.1 270.9L296.0 272.0L296.7 272.3L297.5 272.7L298.0 273.4L298.9 273.2L299.4 272.7L299.4 272.0L300.3 271.6L300.9 272.9L300.4 273.5L299.9 273.8L300.0 274.5L300.7 274.4L301.4 274.0L301.9 275.1L302.1 275.7L302.2 276.5L303.0 277.0L303.5 278.1L303.2 278.7L302.6 278.4L301.9 278.1L301.3 278.0L300.3 278.7L299.7 278.5L298.6 279.2L298.0 279.7L297.2 279.9L296.6 280.3L296.8 281.0L296.3 281.5L295.4 280.1L295.3 279.5L294.6 279.5L294.2 280.1L292.5 280.2L291.5 279.7L290.8 279.8L289.1 280.4L288.6 280.9L288.2 281.6L287.6 282.7L287.4 283.4L286.9 283.7L286.4 284.3L286.8 285.3L285.8 286.2L286.1 287.4L285.4 287.3L285.0 286.8L284.4 286.5L283.8 286.3L283.7 285.0L284.1 284.5L284.4 283.7L284.7 282.7L285.5 282.2L286.2 281.2L286.3 280.5L285.7 280.6L285.0 280.6L284.2 280.4L283.6 280.6L282.8 280.5L282.2 280.2L281.6 280.3L280.6 281.2L281.0 279.8L281.5 279.5L281.6 278.7L282.1 277.7L282.6 277.3L283.2 277.2L283.7 276.8L284.1 276.3L283.8 275.5L283.2 274.9L283.2 274.0L283.5 273.4L284.4 272.9L284.8 272.2L285.1 271.4L285.3 270.8L286.0 270.3L286.6 269.8L287.1 269.3L287.6 268.7L288.0 268.2L288.5 268.0L289.3 268.1L289.9 268.4L290.5 268.4L291.1 268.2L292.0 267.9L292.9 267.6L293.7 267.9L293.4 267.3L294.2 266.7L295.8 266.3L296.4 265.8L297.1 265.4L297.0 266.5L296.9 267.0ZM424.7 260.4L425.4 260.4L425.8 259.9L426.6 259.8L427.2 260.1L426.8 260.8L426.2 261.1L425.6 261.4L427.0 261.8L427.7 261.7L428.1 260.5L428.5 259.6L429.1 260.0L429.0 260.6L429.5 261.0L430.0 260.5L430.3 259.5L429.9 258.2L430.6 259.0L431.6 260.4L432.4 261.5L433.1 261.9L432.8 262.5L433.1 263.0L433.8 263.3L434.8 263.7L435.6 264.0L436.3 264.4L435.9 265.0L436.1 266.2L436.1 267.1L436.4 267.8L436.6 268.3L436.1 268.8L435.4 269.6L435.1 270.2L434.4 270.5L433.9 270.0L433.1 269.6L432.6 270.3L432.1 270.6L430.8 271.4L429.9 271.6L429.5 272.1L428.6 272.6L427.9 272.7L427.5 273.2L426.5 272.8L426.2 272.3L426.4 271.7L426.9 271.3L427.1 270.5L427.8 269.9L427.9 269.1L427.6 268.4L427.2 268.0L426.4 268.0L426.1 267.3L425.4 267.0L425.0 267.6L424.6 268.2L424.0 268.0L423.4 267.3L422.7 267.0L422.2 266.4L422.3 265.7L421.6 265.4L421.8 264.7L423.2 265.2L423.6 265.6L424.9 265.8L425.5 265.7L425.9 265.0L426.1 264.4L425.1 263.8L423.6 263.2L423.0 263.3L422.6 263.7L421.9 263.2L421.2 263.5L421.0 264.1L420.3 264.1L419.6 264.5L419.0 264.1L419.8 263.9L420.6 263.5L420.4 262.2L420.0 261.4L419.8 260.4L419.5 259.3L419.8 258.0L420.1 257.5L421.6 258.5L422.4 258.7L422.8 259.4L423.1 259.9L423.6 260.3L424.2 260.4L424.7 260.4ZM373.0 252.8L373.7 253.0L374.5 253.9L375.1 254.4L375.7 255.2L375.4 255.7L375.9 256.3L376.4 257.1L376.4 258.0L375.6 258.3L375.4 258.9L375.3 260.0L375.3 260.8L374.2 262.2L374.0 262.8L373.9 263.5L373.6 264.2L373.5 264.9L373.2 266.8L372.8 267.3L372.1 267.3L371.7 267.8L371.1 268.4L370.4 268.8L369.5 268.8L368.9 268.5L367.9 268.6L366.8 268.6L365.4 268.3L364.5 267.9L363.4 267.5L362.8 267.6L362.2 267.9L362.0 268.5L362.0 269.3L361.2 269.6L360.7 269.2L360.7 268.6L359.7 268.7L359.0 268.8L358.4 269.1L358.3 270.0L358.5 270.6L358.0 271.1L357.4 269.5L356.9 269.1L356.1 268.7L355.1 268.6L354.6 267.7L354.4 267.2L353.9 266.8L353.3 266.8L352.8 266.3L352.8 265.6L353.3 265.2L353.1 264.5L351.8 264.3L351.3 264.8L351.4 265.4L350.2 266.0L349.6 265.5L349.9 264.9L350.1 264.3L350.1 263.6L350.6 263.2L351.0 262.7L350.1 261.2L349.5 260.1L349.1 259.4L348.5 259.2L348.8 258.2L350.0 259.3L350.6 259.1L351.2 258.5L351.2 257.7L351.9 257.7L352.7 257.2L353.0 256.7L353.2 256.1L352.7 255.5L352.0 255.4L353.0 254.8L353.9 254.4L354.5 254.0L354.5 254.7L354.5 255.3L355.2 256.6L355.8 257.1L356.4 257.1L357.0 256.7L356.8 257.5L357.0 258.3L357.8 258.3L358.5 258.2L359.0 257.8L359.5 256.4L361.1 257.0L362.3 256.5L362.6 255.9L363.9 255.0L365.0 254.2L365.6 254.0L366.3 254.0L367.2 253.2L368.7 253.4L368.8 254.1L369.2 254.5L369.9 254.4L370.9 253.9L371.4 253.4L372.1 253.5L372.7 252.8L373.0 252.8ZM286.8 244.1L286.2 243.8L285.7 242.8L286.0 242.3L286.5 242.7L287.3 243.0L287.1 243.9L286.8 244.1ZM422.3 240.9L423.1 240.8L424.1 241.2L424.7 242.2L424.7 242.9L424.2 243.4L424.0 243.9L423.5 244.4L422.7 244.3L422.0 244.2L421.2 244.4L420.8 245.3L421.9 245.8L422.9 245.8L423.8 246.7L424.2 247.9L423.6 248.2L422.6 247.7L422.1 247.3L420.9 247.8L421.4 249.2L421.9 249.6L422.0 248.6L422.4 249.1L423.5 249.4L424.2 249.4L424.8 249.2L425.4 249.6L425.5 250.2L426.1 250.5L426.1 249.9L426.6 249.4L427.2 249.6L427.8 250.6L428.5 250.9L429.2 251.6L429.4 252.9L429.9 253.3L430.1 254.0L429.3 254.2L428.8 254.8L428.4 255.3L427.6 255.6L427.0 255.5L426.8 254.9L427.1 254.3L426.2 254.8L426.1 255.4L425.4 255.6L424.5 255.8L424.0 255.2L423.1 254.9L421.9 255.2L421.3 255.5L421.7 256.5L420.9 256.9L420.6 256.4L419.9 256.7L419.3 256.5L419.3 255.9L419.2 255.2L418.9 254.6L418.1 254.5L417.6 254.1L417.3 253.5L418.0 252.4L418.8 251.8L419.7 251.4L420.7 251.1L420.8 250.5L420.2 250.2L419.5 250.1L420.2 249.1L419.7 248.2L419.2 247.8L418.8 247.4L418.0 247.5L417.4 247.7L416.3 247.2L416.2 246.2L417.1 245.5L417.7 245.0L417.6 244.2L418.4 243.2L418.7 242.7L419.5 241.7L420.0 241.5L419.8 240.9L420.3 240.5L421.1 240.6L421.9 240.9L422.3 240.9ZM482.4 244.2L482.6 245.1L483.1 245.5L484.5 246.7L484.5 247.7L484.8 248.3L484.7 248.9L483.9 249.0L482.9 248.9L481.9 248.9L482.3 249.4L482.8 249.7L483.5 250.0L484.0 250.3L484.5 249.8L485.4 250.1L486.3 250.6L486.7 251.0L486.9 251.6L486.7 252.3L487.2 252.8L487.9 252.6L487.8 253.3L487.2 253.5L486.7 253.9L486.6 254.6L485.2 254.7L484.6 254.6L483.1 254.6L482.5 254.4L482.5 253.7L481.9 254.2L481.2 254.1L482.1 253.6L483.2 252.2L482.6 252.2L482.0 252.6L481.5 252.1L480.8 251.8L480.0 252.0L479.3 251.8L479.1 251.2L479.5 250.6L478.9 250.4L478.5 250.8L478.0 251.2L477.0 251.3L475.7 250.9L475.3 250.4L476.6 249.7L476.7 249.1L476.1 248.7L475.0 248.4L474.4 248.5L473.8 248.2L473.7 247.5L474.4 246.6L475.0 245.5L474.8 244.9L473.9 245.3L473.3 245.8L472.8 246.0L471.3 245.1L471.2 244.5L470.4 244.2L469.3 244.0L468.7 243.5L468.0 242.4L468.9 241.9L469.6 241.9L470.1 242.2L470.7 242.4L471.3 242.1L473.6 240.1L474.2 239.6L475.2 239.2L475.8 239.0L476.6 238.6L478.4 239.0L479.2 239.3L480.1 239.0L480.2 239.7L480.6 240.2L481.0 240.7L481.1 241.6L481.3 242.3L480.9 242.9L481.2 243.5L481.8 244.1L482.4 244.2ZM181.8 231.0L182.2 230.5L183.0 230.2L183.4 230.9L184.0 231.0L184.7 230.7L186.0 230.8L187.0 231.1L187.6 231.9L187.2 232.4L187.6 232.8L188.6 232.8L189.4 232.6L189.6 233.2L189.6 233.9L190.2 233.6L190.9 233.7L191.4 234.1L192.0 234.2L192.3 235.0L193.0 235.6L193.2 236.1L192.9 236.9L192.3 237.0L191.5 237.2L191.8 238.2L192.6 238.7L193.4 239.2L193.6 240.1L194.2 240.9L195.1 241.3L195.8 241.6L196.5 241.4L196.5 240.7L196.7 240.1L197.6 240.0L199.0 239.0L199.0 239.8L198.6 240.9L199.1 241.2L199.8 241.0L200.3 241.4L200.3 242.4L200.8 243.1L201.6 243.3L202.0 244.1L201.4 244.8L202.8 245.3L203.5 245.5L203.9 246.1L204.1 246.7L204.8 247.8L205.6 248.3L206.4 248.4L206.5 249.0L206.6 249.6L207.1 249.9L207.7 250.3L207.6 251.0L207.0 251.4L205.7 251.5L205.8 252.5L206.8 253.4L207.0 254.0L207.0 255.0L207.6 255.3L208.0 256.0L207.7 256.6L207.2 257.0L206.5 256.3L206.5 255.7L205.9 255.2L205.5 255.7L204.8 255.6L204.0 255.4L203.2 255.7L202.9 256.3L202.8 257.2L203.3 258.2L203.8 258.5L204.6 258.6L205.5 258.6L205.4 259.5L205.3 260.3L204.6 260.2L204.0 260.7L203.5 261.2L203.1 261.7L202.9 262.4L203.1 263.3L203.6 264.2L204.2 264.9L204.3 265.5L203.8 266.0L203.3 266.4L202.7 266.9L201.9 268.0L201.6 268.5L201.6 269.4L200.9 270.5L200.2 270.9L199.8 271.8L199.4 272.3L198.7 272.3L198.4 273.4L198.6 274.2L198.8 275.2L198.6 275.9L198.1 276.3L197.5 275.9L196.8 276.9L197.1 277.4L196.5 277.5L196.7 276.9L196.3 276.3L195.3 274.9L196.1 274.9L196.8 274.8L196.1 273.8L195.7 273.3L196.0 272.7L196.6 272.4L196.0 272.2L195.8 271.6L196.3 271.3L195.8 271.0L195.5 270.3L195.2 270.8L195.1 271.4L194.5 271.4L193.7 272.1L193.9 272.6L193.8 273.3L194.0 274.1L194.3 275.9L193.7 275.2L193.4 274.6L192.8 273.9L192.1 272.8L191.8 273.7L192.2 274.5L192.7 275.0L192.6 275.6L192.1 275.2L191.5 275.3L191.1 274.7L191.1 274.1L190.0 273.9L189.7 274.9L189.9 275.5L190.4 276.0L190.8 276.6L190.1 277.1L189.5 277.2L189.7 278.2L190.6 278.4L190.9 277.8L191.7 277.2L191.8 277.9L192.1 278.5L191.7 279.2L190.6 279.5L191.0 280.4L192.0 280.4L192.3 279.7L193.2 280.3L192.5 280.9L193.0 281.5L193.0 282.5L192.4 282.5L192.0 282.9L191.2 283.7L190.6 283.5L190.2 283.0L190.0 282.4L189.3 283.0L189.3 283.7L189.7 284.2L189.2 284.8L188.6 284.8L188.6 284.1L187.7 284.0L187.3 283.6L187.3 283.0L187.6 282.2L187.7 281.6L188.4 281.0L188.1 280.4L188.2 279.0L188.7 278.7L189.3 279.0L189.7 278.2L189.3 277.7L188.5 277.6L187.6 278.4L186.7 278.4L186.6 277.8L186.9 277.2L186.1 277.2L185.3 277.2L184.5 276.8L184.0 277.3L183.6 277.8L183.3 278.6L183.3 279.3L184.7 279.9L184.5 280.5L184.6 281.1L184.0 281.4L183.4 280.9L182.5 280.7L182.3 281.3L181.6 281.5L181.0 281.3L180.3 281.3L179.9 281.8L179.7 282.4L179.3 283.3L178.4 283.7L178.0 282.6L177.4 282.4L177.3 283.2L176.7 283.4L176.1 283.9L175.4 284.2L174.2 283.3L173.2 283.0L172.1 283.2L171.3 283.9L171.9 283.6L172.5 283.7L173.2 283.9L174.0 284.8L174.3 285.5L173.6 285.5L172.9 285.6L172.4 286.1L171.6 286.4L170.9 286.5L170.1 286.8L169.2 286.7L168.7 287.4L168.2 287.8L167.7 288.2L167.7 287.5L168.0 286.3L167.4 286.4L166.9 287.1L166.1 287.7L165.0 287.8L164.4 287.8L163.7 287.5L163.0 286.8L162.9 286.0L163.9 285.3L163.8 284.6L163.5 285.3L162.8 285.5L162.9 284.9L162.4 284.4L161.9 284.2L160.9 284.5L160.4 284.9L160.8 285.4L160.8 286.1L160.0 286.5L159.4 286.6L158.9 286.1L158.3 286.0L157.6 286.1L158.1 285.0L158.9 284.9L158.3 284.2L157.8 284.5L158.3 284.1L159.0 283.8L158.9 283.1L158.5 282.6L158.8 282.0L160.0 281.4L159.9 280.4L160.2 279.7L158.4 279.7L157.7 280.2L157.9 280.8L157.6 280.2L157.0 280.7L157.0 281.3L156.4 281.3L155.3 281.1L154.6 280.7L154.3 279.3L153.6 278.3L153.5 277.3L153.0 276.8L152.2 276.2L151.6 275.7L151.1 275.0L150.9 274.4L151.0 273.8L150.4 273.1L149.9 272.7L149.9 271.9L150.0 270.7L150.5 270.4L151.0 270.7L150.4 269.8L150.4 269.2L151.2 268.5L151.8 268.6L151.4 268.0L150.9 267.7L151.2 267.1L152.1 266.0L152.6 265.5L153.8 264.7L154.6 264.3L155.2 264.1L155.7 264.4L155.9 265.0L156.8 265.7L157.3 265.4L156.7 264.6L156.7 263.7L155.4 263.0L154.9 261.8L155.5 261.5L156.0 261.1L156.4 260.5L157.1 260.0L157.7 260.0L158.4 260.0L159.6 259.3L160.2 258.8L160.3 258.1L160.8 257.5L161.4 257.1L162.6 256.5L163.5 255.9L164.1 255.8L165.7 255.5L166.5 254.6L166.7 253.7L166.3 252.8L167.2 251.2L168.6 249.4L169.2 248.6L169.7 248.1L170.3 248.6L169.9 249.1L169.6 249.7L169.4 250.4L169.2 251.6L169.2 252.5L169.9 253.1L171.1 252.9L172.0 252.7L172.7 252.4L173.1 251.5L172.2 250.0L171.6 250.4L171.1 249.8L171.2 249.2L171.7 248.9L172.2 248.3L173.0 248.1L173.8 247.5L175.4 247.6L176.1 247.6L176.3 247.0L175.8 246.6L174.9 246.3L174.1 245.7L173.8 245.1L174.5 245.0L174.9 244.6L174.9 244.0L175.9 244.3L176.5 244.0L176.5 243.4L176.4 242.6L176.4 241.7L177.0 242.0L176.9 242.7L177.4 243.1L178.2 243.2L178.6 242.7L178.9 242.0L180.0 239.8L181.5 236.9L181.6 236.2L181.0 235.8L180.6 235.1L180.1 234.7L179.8 235.3L179.4 235.7L179.6 234.4L179.8 233.6L179.4 233.1L180.1 232.2L180.2 231.5L179.5 231.3L179.5 230.5L180.5 230.0L181.4 229.8L181.4 230.7L181.8 231.0ZM143.4 220.2L144.3 220.4L145.3 220.3L146.7 220.9L147.0 221.6L147.5 222.0L148.3 222.6L148.3 223.5L148.6 224.3L149.3 225.1L150.4 225.6L150.8 225.1L151.7 225.2L152.2 225.7L151.9 226.6L151.5 227.0L151.4 227.9L152.3 228.3L152.3 228.9L153.2 229.7L153.8 229.7L153.8 230.3L153.1 230.9L152.3 231.2L152.4 231.8L151.8 231.9L151.5 232.5L152.4 233.1L152.0 233.6L151.4 233.5L150.1 234.8L151.1 235.2L151.5 236.0L151.8 236.6L151.8 237.3L152.1 238.1L151.6 238.8L151.5 238.2L149.9 237.9L148.5 237.9L148.2 238.5L148.8 238.7L149.0 240.3L148.4 240.8L147.7 241.2L147.1 241.8L145.0 242.5L144.7 242.0L144.0 242.1L144.1 242.7L144.0 243.6L143.1 244.1L142.5 244.1L141.6 244.2L140.6 244.1L140.0 243.9L139.9 243.3L138.3 243.7L137.4 243.3L137.1 242.6L137.4 241.1L138.5 241.0L139.2 241.7L140.4 242.4L141.1 242.2L141.4 241.6L140.9 241.2L140.9 240.3L141.8 239.9L142.5 239.8L143.6 239.8L143.4 239.1L143.9 238.6L142.6 237.7L142.0 237.9L141.5 238.2L140.5 237.9L140.0 237.5L139.4 237.4L139.0 238.3L138.7 238.9L137.4 238.8L137.1 238.1L138.0 236.7L138.8 236.7L139.3 235.8L140.5 235.6L141.2 235.7L141.8 236.0L142.8 236.4L143.9 236.8L144.4 237.2L144.8 236.7L145.8 235.1L146.3 234.3L146.4 233.6L147.1 233.7L147.8 232.8L147.9 232.1L148.5 231.9L149.1 231.0L148.5 230.9L147.9 231.0L146.7 231.0L146.5 230.3L145.9 229.4L145.5 228.5L145.5 227.9L145.3 226.5L144.9 225.7L143.7 224.2L142.6 224.6L141.8 224.6L141.7 223.3L141.8 222.3L141.6 221.4L141.7 220.7L141.9 220.1L142.4 219.8L143.1 219.8L143.4 220.2ZM135.3 218.4L136.4 218.8L137.1 218.7L137.9 218.7L139.4 219.7L139.8 220.6L139.8 221.5L139.5 222.8L138.4 224.1L139.1 225.2L140.0 226.0L140.7 226.5L141.5 226.7L142.3 226.6L142.6 226.1L143.0 226.6L143.2 227.4L143.5 228.0L144.0 229.1L144.1 229.8L144.0 230.3L144.5 231.0L144.6 231.8L144.3 232.6L143.8 233.7L143.5 234.4L143.0 234.9L142.4 234.9L142.3 234.3L141.2 234.2L140.9 234.7L140.3 235.0L140.2 234.4L139.2 233.9L138.6 233.9L137.8 234.8L137.7 235.6L137.2 235.9L135.8 236.0L135.5 234.3L136.2 233.5L135.6 233.1L135.7 232.3L135.3 231.3L134.8 231.0L134.9 230.4L135.4 229.9L136.6 229.8L137.1 229.3L137.1 228.4L136.6 228.0L136.1 227.6L135.8 227.1L135.1 227.3L134.9 228.0L134.3 228.2L134.3 227.6L134.6 227.0L134.6 226.0L134.0 225.7L134.1 225.1L134.5 224.6L135.1 223.3L135.2 222.7L134.7 222.0L134.4 221.4L134.4 220.7L134.0 220.3L133.9 219.6L134.4 219.3L134.7 218.7L135.3 218.4ZM163.7 210.2L164.0 210.8L165.6 212.0L166.3 211.6L166.9 212.1L166.6 212.7L166.4 213.4L167.0 213.5L167.5 213.2L168.0 213.7L168.5 214.4L169.1 214.7L168.7 215.7L168.2 216.1L168.2 216.7L168.9 216.8L168.5 217.3L168.6 217.9L169.4 217.7L169.9 217.4L171.4 216.8L171.9 217.4L171.8 218.3L170.9 218.8L170.2 219.1L169.5 219.0L169.0 219.4L168.2 219.6L167.6 219.9L167.5 220.5L166.6 221.6L165.6 221.9L165.1 221.3L165.1 220.5L164.4 220.2L163.8 220.4L163.1 220.6L162.5 221.0L161.8 221.6L161.9 222.3L161.3 222.1L160.5 222.4L159.2 222.6L158.5 222.9L157.8 223.9L156.9 223.7L156.1 223.4L157.4 222.3L157.0 221.4L156.5 221.0L156.1 220.0L156.9 219.3L157.5 218.7L157.8 217.9L158.1 217.4L157.6 216.3L156.8 216.0L156.1 216.2L156.0 216.8L155.2 216.7L154.7 215.9L154.0 216.1L153.4 215.8L153.6 215.2L154.1 215.6L154.7 215.3L154.6 214.6L155.0 214.2L155.6 214.0L156.3 214.5L157.1 214.4L157.3 213.7L157.7 213.1L157.7 212.4L158.1 212.8L158.7 212.6L159.1 212.2L159.7 212.0L160.2 211.1L161.1 209.9L162.2 209.3L163.2 210.1L163.7 210.2ZM18.0 203.5L19.3 203.6L19.1 204.5L18.5 205.0L18.7 206.0L19.2 206.3L20.0 206.3L21.2 206.7L21.9 206.3L21.8 205.4L21.7 204.8L21.9 204.1L22.4 204.5L22.8 204.9L23.4 205.1L23.7 204.6L23.7 204.0L24.2 204.3L24.8 204.4L25.6 204.7L25.7 205.8L25.2 205.9L24.8 206.5L24.6 207.1L24.1 206.9L24.1 206.3L23.5 206.3L23.0 206.6L22.7 207.2L21.7 207.3L21.8 207.9L22.0 209.0L21.8 209.6L21.2 209.5L21.3 210.2L21.5 210.8L20.9 211.3L20.2 211.3L20.6 211.8L19.9 212.6L18.5 212.6L18.0 212.1L17.4 212.6L17.7 213.3L17.9 214.0L17.9 214.6L18.5 215.7L17.8 216.4L17.3 216.1L16.5 216.2L15.6 216.4L15.2 217.1L15.0 217.8L14.8 219.1L15.1 219.8L15.4 221.1L14.2 220.8L13.7 221.0L13.0 220.7L12.9 219.9L12.2 219.9L11.8 219.1L11.2 218.3L10.0 216.5L11.3 215.9L12.1 215.8L12.7 215.9L12.9 215.3L12.5 214.8L12.4 214.2L12.0 214.8L11.5 214.5L11.0 214.2L10.6 213.6L10.5 213.0L10.6 212.4L11.2 212.1L11.8 212.0L12.4 212.1L12.5 211.5L12.3 210.7L12.6 208.9L13.0 208.4L13.8 208.1L14.0 207.5L14.4 206.7L14.9 206.3L14.5 205.3L14.7 204.7L15.2 204.3L15.4 203.4L15.9 203.0L17.1 203.2L17.8 203.5L18.0 203.5ZM485.7 199.7L485.8 200.4L486.2 200.9L486.6 202.0L486.1 202.4L485.7 202.9L485.7 202.2L485.1 202.0L484.6 202.4L483.7 202.1L484.0 201.2L484.5 200.9L484.3 199.8L483.3 201.1L482.8 201.3L482.9 200.7L482.8 200.1L481.7 200.0L481.2 200.4L481.7 201.5L482.4 201.7L481.5 201.7L481.1 201.1L480.5 201.3L480.5 202.0L480.9 202.8L481.3 203.4L481.6 204.0L482.9 203.5L483.4 202.9L483.9 203.4L484.4 203.7L484.3 204.3L484.6 204.8L484.7 205.7L484.0 205.9L483.8 206.5L483.7 207.1L484.0 207.8L484.5 208.2L485.0 208.7L485.0 209.4L485.3 209.9L486.3 210.0L486.7 209.5L487.4 209.7L487.3 210.3L487.8 210.7L488.4 210.5L487.8 211.2L487.2 211.2L487.2 211.8L487.7 212.4L488.4 212.2L489.5 212.2L489.7 212.9L488.9 213.2L488.1 213.7L488.0 214.9L487.8 215.8L487.2 216.5L487.9 216.8L488.0 217.8L488.0 218.7L488.4 219.6L487.9 220.2L487.2 220.2L486.8 220.9L487.2 221.4L486.7 221.6L486.4 222.9L486.7 223.5L486.9 224.5L486.5 225.0L486.0 225.5L487.2 226.4L487.6 226.0L488.9 226.7L489.2 227.2L488.7 227.4L488.8 228.0L489.5 228.0L489.6 229.2L489.2 230.1L488.6 230.4L487.8 230.5L487.0 230.8L486.4 230.9L485.6 230.7L484.9 230.3L484.5 229.8L483.9 229.8L483.0 230.3L482.4 229.8L481.8 229.1L481.2 228.7L480.7 228.9L479.8 228.6L478.9 228.9L478.2 228.8L477.6 228.1L477.2 227.5L477.0 226.9L476.3 226.1L476.1 225.5L476.1 224.6L475.5 224.3L474.7 224.3L474.1 223.9L473.2 223.8L472.5 223.8L471.9 222.6L471.5 222.1L471.2 221.2L471.7 220.8L471.9 220.1L472.5 220.1L472.9 219.6L473.3 218.6L473.5 218.0L472.3 216.7L471.5 216.9L472.0 216.3L472.5 215.8L472.7 215.2L472.7 214.5L472.9 213.9L473.3 213.5L474.0 213.4L474.8 213.0L476.0 212.3L476.9 211.5L477.5 210.8L478.1 210.1L477.9 209.5L478.1 208.8L478.6 208.5L479.0 207.5L480.7 206.5L481.0 205.9L480.3 205.3L479.9 204.7L480.0 204.0L479.7 203.5L479.5 202.7L479.6 201.4L479.8 200.8L479.0 199.2L478.3 199.1L477.5 197.8L477.1 197.4L476.8 196.8L476.9 196.1L476.5 195.7L475.9 195.4L476.2 194.6L477.9 194.6L479.7 195.0L480.5 195.5L481.8 196.3L482.8 196.6L483.3 196.9L484.0 197.5L484.7 197.9L485.9 198.8L485.7 199.7ZM463.2 192.4L462.6 191.6L463.3 191.5L463.4 192.1L463.2 192.4ZM126.0 196.4L126.8 196.9L127.1 197.5L127.2 198.1L127.7 198.8L127.9 198.2L128.2 197.6L130.0 197.9L130.4 199.1L130.2 199.7L130.4 200.3L131.8 201.9L133.0 202.1L133.6 201.9L134.2 202.2L134.4 202.7L133.9 203.2L133.8 203.8L133.7 204.6L133.9 205.5L133.4 206.3L132.5 206.4L131.7 206.7L131.1 207.2L130.6 207.6L129.8 207.7L129.3 208.1L129.5 209.1L128.8 209.1L127.9 209.2L127.9 211.4L127.0 212.5L126.3 212.8L125.5 212.8L125.0 213.1L124.4 213.1L123.2 213.0L122.7 212.3L122.9 211.2L123.4 210.3L123.0 209.5L122.3 209.4L121.8 209.6L121.6 210.3L121.2 210.7L120.5 210.6L120.1 211.1L119.6 210.5L118.8 209.7L119.1 209.1L118.8 208.3L117.7 207.8L117.3 208.4L117.1 209.5L116.2 209.6L116.1 209.0L116.3 208.3L116.6 207.7L115.9 207.6L115.7 208.3L115.1 207.3L115.3 206.5L115.9 206.1L115.0 206.1L114.9 205.5L115.0 204.8L115.1 204.1L114.9 203.4L115.4 202.5L115.3 201.6L115.5 200.9L115.2 200.2L116.3 199.6L116.9 199.6L118.7 198.9L119.4 198.8L120.2 199.3L121.2 199.1L121.2 198.2L121.5 197.2L122.6 196.0L123.2 195.3L123.7 194.6L124.2 193.7L124.9 193.8L125.5 195.0L125.5 195.7L125.9 196.4L126.0 196.4ZM152.6 186.4L154.4 186.1L154.9 185.7L156.4 185.3L157.0 185.7L157.2 186.3L157.1 186.9L157.8 187.9L158.7 189.0L159.9 189.3L160.4 189.9L161.3 189.9L161.8 189.4L161.6 188.7L162.6 188.5L163.7 188.5L164.2 188.9L165.0 189.8L165.9 190.1L165.5 190.8L165.4 191.8L166.3 192.1L166.7 192.7L167.0 193.5L167.3 194.8L167.5 195.8L167.5 196.5L168.1 196.8L167.5 197.9L167.1 198.4L166.9 199.0L167.2 199.6L167.2 200.4L167.1 201.1L166.5 201.6L166.5 202.5L164.9 202.7L163.9 202.4L163.1 201.8L162.4 201.9L161.9 202.2L160.9 202.2L160.8 201.4L161.4 200.7L161.6 200.0L161.6 199.2L161.1 198.3L160.4 198.1L159.5 197.5L159.3 196.7L159.8 196.3L159.1 195.7L158.5 195.9L157.9 196.2L157.0 196.4L156.5 196.7L156.1 197.5L156.2 198.1L155.3 199.0L154.7 198.6L154.2 198.3L153.7 197.9L153.7 197.3L153.0 197.5L152.1 197.7L151.2 197.6L149.5 198.0L148.5 198.5L148.4 199.3L148.0 199.8L148.0 200.5L147.8 201.1L146.7 200.5L146.5 199.8L146.7 199.3L148.0 197.7L147.7 196.9L146.4 194.9L146.2 194.3L145.8 193.8L145.9 193.2L146.0 192.5L146.8 192.2L146.6 191.6L147.6 191.0L148.1 190.5L147.9 189.6L147.5 188.9L147.4 188.3L147.2 187.6L147.0 186.9L146.3 187.0L145.3 186.9L144.7 186.2L145.3 186.4L146.5 186.3L147.1 186.2L147.4 186.8L148.0 187.1L148.6 187.0L149.2 186.6L149.3 185.9L149.1 185.0L149.5 184.3L150.3 184.8L150.8 185.4L151.8 185.8L152.4 186.3L152.6 186.4ZM202.8 183.2L203.2 183.6L204.1 184.4L204.7 184.5L205.7 185.0L206.2 185.3L206.0 185.9L205.4 187.0L205.7 187.8L205.1 188.3L204.0 188.1L203.9 188.9L203.6 189.9L202.9 189.9L203.0 190.6L203.3 191.4L202.5 191.0L201.6 190.5L201.3 189.0L201.3 187.5L202.1 187.5L202.1 186.7L202.8 186.6L202.9 185.9L202.8 185.2L202.2 185.1L202.8 185.1L202.7 184.5L202.5 183.7L202.3 183.1L202.2 182.5L202.2 181.9L202.5 182.7L202.8 183.2ZM130.6 176.5L131.2 176.7L131.4 177.8L131.6 178.6L132.0 179.5L131.7 180.4L131.3 181.4L131.3 182.5L130.7 182.8L130.0 183.4L129.1 184.1L129.6 184.8L131.1 185.1L131.7 184.6L131.9 186.2L131.6 187.6L130.3 187.9L129.9 187.5L128.8 187.7L128.4 188.4L127.4 189.5L126.4 189.1L126.5 188.5L125.7 188.2L125.1 189.3L124.6 189.7L124.5 190.4L124.3 191.0L123.8 190.8L123.6 189.9L123.5 189.2L123.7 187.7L124.5 187.4L124.1 186.8L123.5 186.9L122.9 186.4L122.6 186.9L123.1 187.3L123.5 188.0L123.2 189.5L122.5 189.6L122.1 189.1L121.7 188.6L119.8 189.3L119.6 190.2L119.4 190.8L118.7 190.5L118.7 189.8L118.1 189.5L119.2 191.0L119.5 191.6L119.9 192.2L120.5 193.2L121.6 194.1L121.2 194.7L120.7 194.2L120.5 194.8L120.5 195.4L119.8 195.4L119.7 196.0L120.3 196.2L120.1 197.1L119.3 197.7L118.3 197.7L117.4 197.6L116.9 198.2L115.6 198.5L114.7 198.3L114.0 197.8L113.2 197.5L112.7 196.2L111.8 196.0L111.3 195.7L110.7 195.9L111.2 195.5L111.2 194.9L110.7 194.4L110.0 194.6L109.8 194.0L109.9 193.4L109.5 192.9L109.7 192.3L110.0 191.9L110.2 191.2L110.7 190.8L111.0 190.3L110.3 190.0L110.2 189.1L110.3 188.2L110.9 188.2L111.5 188.1L111.1 187.6L110.4 187.0L110.0 186.5L110.8 185.8L111.4 185.8L112.0 185.6L112.6 185.1L112.6 184.5L112.0 184.7L111.6 184.2L111.7 183.6L112.1 183.0L112.8 183.3L113.3 182.9L113.6 183.6L114.1 184.0L114.7 184.1L115.3 183.9L116.6 184.0L117.7 184.1L118.5 184.0L119.1 183.9L119.8 183.7L120.6 183.4L121.5 182.8L122.1 182.5L122.6 182.1L122.8 181.4L122.3 181.0L123.1 180.9L123.8 180.9L124.2 181.5L124.8 181.3L125.8 179.8L126.3 178.8L126.1 178.2L126.6 177.7L127.5 177.6L128.5 177.4L129.4 177.3L130.0 177.3L130.2 176.7L130.6 176.5ZM190.2 165.9L189.9 166.5L190.2 165.9ZM154.8 158.1L155.8 158.3L156.2 158.7L156.9 158.6L157.6 158.4L157.7 159.4L158.3 159.5L159.0 159.6L159.8 159.0L159.6 158.4L160.4 158.4L160.8 158.8L160.6 159.7L161.2 160.2L161.7 161.0L162.3 161.0L163.0 161.9L163.2 162.7L163.0 163.3L161.3 163.6L160.1 163.4L159.1 163.0L158.2 163.5L158.6 165.2L159.2 165.4L161.0 166.3L161.4 166.7L161.8 167.5L161.4 168.4L160.6 169.0L159.6 169.5L159.5 170.3L159.6 170.9L160.0 171.5L159.2 171.6L158.7 171.1L158.5 170.5L157.7 170.3L156.9 169.7L155.8 169.8L155.5 170.7L154.6 171.8L154.7 172.4L154.9 173.4L155.1 174.0L155.8 174.4L156.2 174.9L156.2 175.6L155.7 176.2L155.3 176.7L155.7 177.3L155.4 178.1L153.6 178.1L152.8 178.2L152.0 179.1L150.8 178.9L150.2 178.5L150.0 178.0L150.7 177.6L151.0 176.7L150.2 175.6L149.8 174.5L149.4 174.1L148.8 174.1L148.2 173.9L147.2 174.0L146.1 174.9L146.5 176.1L147.0 177.7L147.4 178.2L147.6 178.7L147.2 179.4L146.3 179.2L146.0 178.6L145.2 177.3L144.7 176.0L144.2 176.3L143.3 175.9L142.9 175.4L143.0 174.8L142.3 174.5L141.6 174.6L140.6 173.3L140.6 172.3L140.6 171.6L141.3 171.3L141.6 171.9L141.9 172.7L142.6 172.7L143.5 172.8L143.6 173.5L144.3 173.7L145.0 174.9L145.9 175.0L147.2 174.0L147.7 173.5L147.2 172.8L146.5 172.6L146.9 172.0L147.1 171.5L146.0 169.9L144.9 168.5L144.0 167.4L143.7 166.5L145.3 165.9L146.4 165.8L147.0 165.4L147.5 165.0L148.0 164.1L148.8 163.7L149.5 163.9L150.0 164.4L152.1 165.5L152.7 165.6L153.3 165.9L153.9 165.9L154.7 165.8L155.7 164.1L155.0 163.9L154.5 163.5L153.8 162.4L153.5 161.4L153.9 159.8L153.4 159.2L153.4 158.6L154.0 158.6L154.5 158.1L154.8 158.1ZM190.2 165.9L190.0 165.2L189.6 164.7L188.1 164.7L187.2 164.6L186.5 164.7L186.2 165.2L185.9 165.9L185.8 166.5L185.1 167.2L184.6 167.9L184.2 168.3L183.5 168.3L182.7 168.2L181.8 168.1L180.9 167.3L179.6 166.5L179.0 166.3L178.3 166.2L177.7 166.2L176.9 166.5L176.7 165.9L177.2 165.3L177.1 164.7L177.4 164.2L177.8 163.6L177.9 163.0L178.0 162.4L178.7 162.6L179.0 163.2L179.8 163.7L181.5 163.9L182.2 163.8L182.8 163.9L184.2 163.6L184.7 162.3L184.9 161.3L185.0 160.6L185.7 160.7L185.9 161.9L186.1 162.5L186.9 162.3L187.7 161.6L187.5 160.9L187.1 160.4L187.1 159.2L187.3 158.4L187.6 157.4L188.2 156.8L188.8 157.0L189.2 157.5L189.2 158.1L189.8 158.3L190.9 158.0L192.0 156.8L191.9 156.0L191.4 155.1L190.5 153.8L189.8 153.3L189.2 152.9L188.5 152.1L187.6 151.5L187.7 150.6L188.1 150.2L189.0 149.5L189.6 149.3L190.0 148.8L190.6 148.3L191.2 148.4L191.7 148.8L192.3 148.7L192.5 149.4L192.2 149.9L193.0 151.1L193.9 151.8L194.8 152.1L195.5 151.8L195.6 151.2L196.0 150.9L196.6 151.2L197.2 151.4L198.4 151.4L198.9 151.8L199.0 152.4L199.3 153.2L199.9 153.7L201.1 154.0L201.5 155.8L201.1 156.8L200.9 155.9L200.7 155.3L200.2 155.0L198.6 155.3L198.6 155.9L198.5 156.7L198.0 156.9L197.5 156.0L196.7 155.7L196.4 157.4L196.5 158.0L197.1 158.6L196.0 158.2L195.1 157.7L193.9 158.8L194.3 159.3L195.0 159.5L196.4 160.2L195.8 160.5L195.5 161.3L194.5 161.6L194.6 162.3L195.1 162.8L195.7 163.1L196.3 163.2L197.6 163.1L198.1 162.8L198.6 162.5L199.3 162.4L199.9 162.6L200.8 162.8L201.5 162.7L202.1 162.5L202.8 162.7L203.7 164.4L204.4 164.3L204.9 164.6L204.7 165.2L204.8 165.9L205.4 166.6L205.5 167.6L204.8 167.9L204.3 168.4L204.3 169.2L205.3 169.0L205.8 170.1L205.0 170.2L204.3 170.5L204.2 171.3L204.7 171.7L204.6 172.3L203.9 172.4L203.2 173.4L202.1 174.5L201.4 174.6L200.8 174.7L200.5 174.1L200.0 173.7L199.2 174.1L197.9 173.7L196.9 172.9L196.6 172.2L198.0 172.1L198.5 171.7L198.3 170.8L198.5 170.2L199.3 170.0L199.9 170.1L200.4 169.6L200.1 168.0L199.4 168.1L199.2 168.7L198.6 168.4L198.5 167.8L198.1 166.3L197.6 165.9L196.8 165.7L195.7 165.8L195.1 166.0L194.6 166.7L194.2 166.2L193.8 165.2L191.8 165.0L190.6 165.4L190.2 165.9ZM144.4 145.7L144.9 145.2L145.4 144.7L145.9 145.1L146.5 145.4L147.5 146.0L147.2 147.0L146.7 147.6L146.8 148.2L147.2 148.7L147.8 149.0L149.0 148.7L149.7 148.2L149.7 149.1L149.2 149.4L148.4 149.9L148.4 150.6L148.9 150.8L150.0 150.9L150.2 151.5L150.9 151.3L150.8 152.2L150.2 152.7L149.1 153.3L148.5 154.8L149.7 156.1L151.0 156.0L151.4 157.0L150.9 157.4L150.4 157.7L150.6 158.5L150.8 159.4L150.3 159.1L149.8 159.6L148.9 159.6L148.4 159.2L148.1 158.4L147.6 159.0L147.4 159.7L147.5 160.4L147.7 161.0L148.0 161.6L148.6 161.9L148.1 162.5L147.3 162.1L145.5 162.5L145.3 163.2L145.6 163.7L145.0 164.2L143.7 164.3L142.9 164.8L142.2 164.9L141.1 165.7L140.6 166.3L141.2 166.7L140.5 167.3L139.7 166.0L138.5 164.2L138.1 163.7L137.4 163.5L136.8 163.5L135.9 163.1L136.3 162.6L136.6 161.8L136.6 160.9L135.5 162.0L135.1 162.6L134.3 162.9L133.9 163.5L132.8 162.8L131.9 162.3L131.2 162.1L130.6 162.3L130.0 162.5L129.0 162.5L128.5 162.8L127.4 162.5L127.9 161.9L128.4 161.5L128.3 160.9L127.9 160.4L127.4 160.1L126.8 160.5L126.3 160.9L125.7 160.7L125.3 160.0L125.7 159.5L126.3 159.8L126.9 160.0L127.9 159.4L128.5 159.6L129.0 160.0L129.6 159.7L130.1 159.3L130.9 157.9L130.8 156.9L131.9 156.9L132.3 156.4L133.5 154.3L134.1 153.1L134.5 152.1L135.0 151.6L134.7 151.0L135.2 150.7L135.5 151.5L136.3 151.9L137.0 151.9L138.1 151.5L138.7 151.1L139.1 150.5L139.3 149.9L138.7 149.4L139.5 148.9L140.1 150.1L139.9 150.7L140.7 151.2L141.3 151.2L142.0 151.1L142.7 150.7L144.0 148.7L143.7 148.2L143.4 147.4L143.7 146.7L143.9 146.1L143.5 145.7L143.1 145.2L143.0 144.5L143.9 144.8L144.3 145.2L144.4 145.7ZM476.1 143.9L475.9 144.6L475.9 145.7L478.5 145.8L479.5 145.9L481.2 145.9L484.5 149.0L485.1 149.6L485.4 150.2L485.3 151.3L485.4 152.4L485.3 153.3L485.3 155.9L485.3 157.0L484.3 157.0L483.7 156.9L482.2 156.0L481.5 155.7L480.9 155.4L480.9 154.8L480.9 153.9L480.9 153.2L480.2 153.0L477.8 152.5L477.0 152.3L479.1 152.7L479.7 152.9L480.5 153.0L480.9 151.9L479.7 151.6L479.1 151.6L478.2 151.6L477.3 152.1L476.7 151.6L475.5 151.7L476.2 151.7L470.9 151.0L469.5 150.4L469.5 149.6L469.6 148.8L469.6 147.6L469.4 146.6L470.0 146.2L470.8 146.2L471.4 145.8L471.6 145.1L471.6 144.5L472.2 143.8L472.7 143.2L473.1 142.7L473.4 142.2L474.2 141.6L474.6 141.1L475.1 141.4L475.8 142.2L476.4 142.4L476.3 143.4L476.1 143.9ZM482.2 150.8L482.2 151.6L481.8 152.3L481.8 153.9L481.9 154.6L484.8 154.6L484.9 153.7L484.9 153.1L484.9 151.5L484.8 150.6L482.9 150.9L482.9 150.1L482.2 150.1L482.2 150.8ZM158.7 122.8L159.2 123.3L159.7 123.8L160.1 123.2L160.7 123.8L161.5 124.0L162.1 123.8L163.4 124.5L164.4 124.5L164.8 125.1L164.6 125.7L164.0 126.7L164.6 127.2L164.6 128.0L166.7 129.9L167.3 131.3L167.1 131.9L167.2 133.7L167.1 134.6L167.5 135.4L166.7 135.8L165.7 136.7L165.0 137.2L164.3 138.3L164.9 137.2L164.1 136.2L163.4 136.2L162.6 136.9L161.6 136.4L160.4 136.9L160.5 137.6L160.4 138.9L160.4 139.9L159.6 140.6L159.1 141.2L158.6 141.7L157.8 141.6L157.1 141.6L156.7 142.2L156.5 141.2L157.1 141.3L157.9 140.0L158.4 139.0L158.9 137.7L159.0 137.0L159.0 136.0L158.9 134.8L158.8 133.5L158.7 132.8L158.5 132.2L158.5 131.6L159.5 131.8L159.9 132.3L160.5 132.5L160.2 131.1L159.8 130.7L159.2 130.2L158.7 129.3L158.3 128.9L156.9 129.2L156.3 129.0L155.9 129.8L155.1 130.1L154.5 129.9L153.5 129.8L152.9 130.0L152.5 129.4L152.0 129.0L151.3 128.7L151.5 128.0L151.8 127.3L152.3 127.7L153.0 128.0L153.5 127.7L154.1 127.0L154.6 126.7L154.7 126.1L154.3 125.6L154.6 124.8L155.7 125.1L156.4 124.9L157.2 124.1L156.8 123.5L157.0 122.8L157.7 123.5L158.3 123.5L158.0 123.0L158.6 122.7L158.7 122.8ZM142.9 110.8L142.1 109.8L141.5 109.4L140.7 109.7L140.3 108.5L141.0 108.1L141.5 106.9L142.6 106.0L143.0 105.5L142.3 105.2L141.6 104.1L142.1 103.6L142.6 104.0L143.4 104.0L144.2 103.7L144.8 103.8L145.6 104.0L146.4 103.8L146.9 103.5L147.6 103.1L148.8 102.2L149.3 101.7L149.7 101.3L151.3 99.2L151.8 98.6L152.6 97.8L153.2 97.5L153.7 96.9L154.1 96.4L154.6 95.6L154.8 95.0L154.3 94.6L155.0 94.2L155.2 94.8L155.9 94.8L156.7 94.4L157.7 94.2L158.5 94.3L159.2 94.1L159.9 94.3L160.2 94.8L160.6 94.3L160.8 93.5L161.5 93.3L163.0 93.2L163.6 93.3L164.3 93.5L163.2 93.9L162.2 94.2L161.5 93.9L160.9 95.0L160.4 95.6L159.7 95.9L158.9 96.0L157.8 95.9L157.2 95.8L156.5 96.2L156.1 97.2L156.2 97.8L155.9 98.6L155.5 99.1L155.2 100.3L155.1 100.9L155.4 101.6L155.4 102.8L155.0 103.2L155.3 103.9L155.4 105.0L154.9 105.5L155.1 106.2L155.6 106.5L156.2 107.6L155.6 108.4L156.0 108.9L154.2 108.8L153.2 108.3L152.9 107.8L152.4 107.5L153.1 108.4L154.3 109.1L155.0 109.3L155.5 109.6L156.1 110.2L156.0 110.9L154.9 111.7L154.3 111.6L153.6 112.0L154.7 113.7L155.1 114.2L154.9 114.7L154.3 114.8L153.9 114.3L153.3 114.5L152.2 115.3L152.5 116.0L152.3 116.6L151.8 116.9L150.9 117.5L150.9 116.8L150.4 116.5L148.5 115.7L147.8 115.5L147.2 115.3L146.6 114.6L147.0 112.9L147.2 112.2L146.5 112.3L145.7 112.9L145.2 112.3L144.4 112.2L143.8 112.5L143.6 113.1L144.0 113.6L144.3 114.2L144.2 114.8L144.6 115.3L143.4 115.4L143.9 114.4L143.5 113.9L143.0 113.5L142.5 113.8L141.7 114.1L141.3 113.3L140.5 112.8L140.1 113.2L139.4 113.2L139.4 112.1L140.7 112.2L141.8 112.6L142.7 112.7L143.1 111.9L142.8 111.2L143.3 110.6L142.9 110.8ZM308.3 262.4L306.4 262.2L305.4 262.2L304.6 262.4L304.7 263.2L305.4 263.6L305.9 264.0L306.5 265.6L306.6 266.4L307.5 267.9L307.6 268.7L307.2 269.2L307.1 269.9L307.3 270.6L306.6 270.4L306.3 269.8L306.2 269.1L305.2 267.5L304.6 266.9L303.9 266.6L303.6 267.2L303.3 267.8L302.9 267.2L302.7 266.5L302.2 266.0L301.5 265.8L300.1 264.5L299.3 263.6L299.0 264.2L298.3 264.1L298.0 263.5L296.8 263.9L296.2 264.4L295.6 264.0L294.8 264.2L293.9 264.1L293.4 263.7L293.3 263.1L292.6 262.7L291.8 262.8L291.3 262.4L291.4 261.7L291.9 259.8L291.5 259.3L290.6 259.3L290.0 259.4L289.0 259.7L288.7 260.5L288.4 261.2L288.6 260.4L288.6 259.7L287.6 259.4L287.6 258.1L287.8 257.4L288.9 256.7L289.8 256.6L289.7 255.4L289.5 254.5L288.9 254.1L288.6 253.3L288.5 252.6L288.8 251.9L288.3 250.9L288.5 250.3L288.8 249.4L288.4 248.8L287.8 248.6L287.9 247.9L288.2 247.4L288.4 246.7L288.3 245.9L288.7 244.5L288.7 243.7L288.5 242.5L288.6 241.6L289.0 241.0L289.4 240.4L288.7 239.9L288.5 238.7L288.8 237.9L288.4 237.3L288.6 236.6L289.0 236.1L289.3 235.1L289.0 234.4L288.2 234.1L287.6 232.7L288.1 232.4L288.4 231.7L288.2 230.7L287.8 230.0L287.1 230.2L286.8 229.6L286.4 229.0L285.9 228.4L286.3 227.9L286.5 226.9L286.3 226.4L286.2 225.3L286.2 224.0L285.8 224.7L285.5 225.3L285.0 225.9L284.9 226.5L285.0 227.1L285.2 227.9L285.3 228.5L285.2 229.2L284.9 229.7L284.3 230.3L284.2 231.1L284.1 232.0L283.9 233.0L283.6 235.2L283.5 235.9L283.9 237.8L284.0 238.4L283.6 239.7L283.3 240.4L283.3 243.1L283.3 243.8L283.7 244.4L284.2 244.7L283.7 245.0L282.9 245.0L282.3 245.2L282.3 247.1L282.4 248.4L282.6 249.9L282.7 250.9L283.5 251.4L283.2 252.1L282.6 252.2L282.1 252.8L282.4 253.4L281.9 253.7L281.1 253.5L280.6 253.9L279.7 254.2L278.9 254.3L278.4 254.7L278.3 255.6L278.5 256.1L278.9 256.6L279.8 257.0L280.2 258.1L281.0 258.6L280.7 259.1L280.8 258.5L280.2 258.4L278.8 260.4L277.8 261.9L277.5 262.5L276.4 264.3L275.4 265.5L274.9 265.2L274.3 265.0L273.7 265.2L272.8 265.7L272.4 266.4L271.6 266.4L270.9 266.3L270.2 266.2L269.2 267.0L268.3 267.7L267.9 268.8L266.8 269.6L265.9 269.4L265.3 269.4L265.6 270.3L266.1 270.7L266.1 272.0L265.5 272.2L265.3 271.6L264.8 270.9L263.8 270.0L262.9 269.8L262.0 271.0L261.1 270.3L260.6 270.7L260.6 271.7L259.9 271.6L260.2 272.9L259.6 273.0L259.9 273.8L259.0 273.8L258.5 273.4L257.8 273.2L257.2 273.7L256.7 274.7L256.3 275.6L255.8 275.1L255.2 274.6L254.1 275.4L254.5 276.1L255.0 276.9L255.1 277.9L254.2 278.1L252.9 279.5L253.4 280.5L253.5 281.1L254.1 281.2L254.7 281.3L254.6 281.9L254.4 282.6L254.7 283.2L254.4 284.1L254.3 284.7L254.8 286.1L253.3 287.4L252.7 287.7L252.3 288.1L251.6 288.2L251.1 288.7L251.3 289.3L252.0 289.6L252.6 290.1L252.1 290.6L251.5 290.9L250.9 291.6L251.0 292.3L251.5 293.0L251.2 294.0L250.9 295.7L251.7 296.3L251.8 296.9L251.2 296.8L250.7 297.3L250.1 297.5L249.5 297.3L248.8 296.7L248.5 296.0L247.9 295.7L246.6 295.5L246.0 295.5L245.2 295.6L244.4 295.4L243.3 295.2L242.7 295.2L242.1 295.6L241.3 296.6L240.8 297.9L240.5 298.5L240.0 299.3L239.8 299.8L239.0 299.9L238.5 299.7L237.1 300.2L236.6 300.6L236.6 302.0L235.9 302.5L235.3 302.4L235.3 301.8L234.3 301.5L234.4 300.8L234.3 299.9L234.1 298.7L234.6 298.2L234.8 297.6L234.5 296.9L233.6 296.2L233.6 295.5L235.0 294.7L235.9 293.4L236.2 292.6L236.2 291.9L236.0 291.3L235.7 290.7L235.0 290.7L234.5 291.1L235.0 290.7L235.3 288.8L235.2 287.7L235.2 286.8L234.9 285.7L234.4 285.3L233.6 284.9L233.0 284.6L232.2 284.5L231.6 284.7L231.2 285.4L231.2 286.0L230.7 286.6L229.9 286.1L229.3 286.0L228.9 286.5L228.5 286.9L227.3 287.4L226.9 288.0L226.6 288.6L226.0 288.8L226.3 288.3L225.6 288.3L225.2 287.8L224.9 287.1L224.2 286.3L223.9 285.4L224.5 285.0L225.1 285.6L225.9 286.6L226.5 286.9L227.1 286.5L226.9 285.8L226.4 285.2L227.3 285.0L228.0 284.9L227.7 284.2L227.1 283.9L226.6 283.4L226.1 282.8L226.8 282.5L227.2 282.1L226.7 281.8L225.9 281.6L226.7 280.7L227.2 280.3L226.5 280.2L226.0 280.6L225.3 280.4L225.8 280.2L226.4 279.7L227.1 279.8L227.7 279.5L229.4 279.7L230.0 280.0L230.5 278.9L229.9 278.4L229.8 277.8L229.3 277.4L228.8 277.0L228.9 275.5L229.3 274.9L228.4 274.2L229.5 274.0L229.9 274.5L230.5 274.7L231.5 274.8L232.4 274.3L232.8 273.8L233.5 273.2L234.1 272.9L233.6 271.2L233.4 270.7L233.1 270.1L232.6 269.6L232.9 268.7L233.4 268.2L233.6 267.7L233.3 267.1L232.9 266.6L232.3 266.1L231.7 266.5L231.0 266.9L230.6 267.5L230.6 268.1L229.8 268.2L229.4 267.7L228.5 267.5L227.9 267.7L227.5 268.1L227.2 268.8L227.6 269.6L226.9 269.7L226.3 269.5L225.0 267.1L224.5 266.4L223.9 265.6L223.4 265.2L222.3 264.4L222.9 263.9L223.5 263.5L223.9 262.9L224.3 263.4L224.6 264.3L225.4 264.6L225.9 264.5L226.4 263.9L226.1 263.3L225.3 262.5L224.6 262.2L224.5 261.0L225.4 259.5L225.1 259.0L224.4 258.7L223.6 259.1L222.8 258.4L222.6 257.8L222.2 257.3L222.1 256.4L223.2 256.1L223.8 256.1L224.1 255.6L223.6 254.6L223.1 254.1L224.0 252.8L223.6 252.2L223.0 252.5L222.5 251.9L222.3 251.3L223.2 250.7L223.9 250.7L225.2 250.0L224.1 247.9L223.8 247.3L223.4 246.6L222.5 246.6L222.6 246.0L221.8 246.2L220.8 246.3L219.9 246.3L219.6 245.1L221.1 244.7L222.3 244.3L223.1 243.8L222.4 243.0L221.5 242.9L220.5 242.7L220.1 242.2L219.4 242.1L219.1 242.6L218.2 243.0L218.5 242.5L218.7 241.9L218.2 241.1L217.9 240.3L218.2 239.4L217.6 239.0L217.2 238.5L215.9 238.1L215.3 238.3L214.6 238.0L214.2 237.5L214.4 238.3L214.7 239.4L214.6 240.1L213.9 240.2L213.3 239.8L212.1 240.0L211.2 240.5L211.5 241.2L211.7 242.1L211.1 242.6L210.5 242.9L209.2 243.6L208.5 243.7L207.1 242.5L207.4 241.3L208.1 241.2L208.7 240.1L209.0 239.2L208.6 238.6L208.0 238.4L208.2 237.1L207.8 236.5L207.1 236.2L206.6 236.4L205.1 236.7L204.2 236.8L203.6 236.4L203.3 235.9L202.7 235.6L202.1 234.5L201.7 235.0L200.7 235.0L200.0 234.6L199.4 234.5L198.1 233.7L197.4 234.4L196.8 234.7L195.7 234.7L195.0 234.7L194.0 235.1L193.5 234.4L192.9 233.8L193.1 233.1L192.5 232.7L192.8 232.0L193.7 231.1L194.0 230.5L193.3 230.0L192.7 229.7L191.7 229.5L190.9 229.0L191.1 227.6L190.4 227.0L190.3 227.6L189.7 229.0L189.1 228.9L188.1 228.3L187.4 228.3L187.4 227.4L188.0 227.1L188.0 226.5L188.8 226.1L188.0 225.1L187.5 224.7L186.9 224.3L185.2 224.6L184.2 225.0L183.2 224.2L183.9 224.3L184.8 224.1L185.2 223.5L185.8 223.9L186.5 223.9L187.3 224.2L188.0 223.4L188.2 222.8L187.5 221.9L188.2 221.7L188.8 221.9L189.1 221.3L189.3 220.5L190.1 220.0L189.8 219.0L189.4 218.5L188.7 218.6L188.4 219.1L188.3 219.7L187.6 219.8L186.9 219.7L186.4 219.3L185.7 219.1L184.8 217.9L184.3 217.8L183.5 217.2L183.4 216.6L183.7 216.1L184.5 216.5L185.1 215.5L184.4 215.2L184.1 214.7L183.6 214.1L183.9 213.6L184.0 213.0L183.6 212.1L183.1 211.7L182.5 211.5L182.5 210.8L183.2 210.3L183.5 209.4L183.5 208.6L182.6 208.3L182.4 207.7L183.1 206.7L183.6 206.3L183.5 204.8L183.2 203.8L183.2 202.9L183.5 202.0L183.7 201.2L184.1 201.6L185.1 202.3L185.7 201.9L185.5 201.1L185.7 200.4L186.3 199.8L186.4 199.2L186.2 198.6L186.8 197.9L187.2 198.4L187.3 197.7L186.5 197.0L186.3 196.2L186.4 195.4L186.8 194.8L187.1 193.9L187.3 193.0L187.7 191.9L188.2 190.9L188.6 189.1L188.5 188.5L189.1 188.0L190.1 187.7L190.7 187.4L192.5 188.7L193.4 189.6L193.2 190.2L192.8 190.7L193.6 191.4L194.4 191.1L194.7 190.3L196.1 191.7L196.9 192.5L197.7 192.8L198.1 193.2L198.0 193.9L197.1 193.9L197.3 195.1L197.5 197.0L197.4 197.6L197.9 198.0L198.7 198.1L199.8 199.2L200.5 199.9L200.9 200.4L201.2 201.3L201.1 202.1L200.7 202.6L201.0 203.2L201.5 203.5L202.0 204.0L202.5 204.3L203.4 204.1L203.9 203.9L204.1 203.2L204.7 203.0L205.5 201.5L205.4 200.9L206.3 200.1L206.4 199.1L207.6 198.4L208.1 198.0L208.4 197.3L208.7 196.3L208.9 195.5L207.9 194.8L207.3 194.4L205.9 193.7L205.0 193.2L203.6 192.5L204.1 190.9L204.8 190.9L204.4 190.4L204.9 190.1L206.3 190.4L207.3 189.8L207.2 189.1L206.6 189.0L205.8 189.7L206.5 188.6L207.2 187.9L207.5 187.0L207.0 186.7L207.4 185.9L209.1 185.4L210.7 184.6L211.6 184.6L212.1 184.9L214.4 184.3L215.6 183.7L216.8 183.5L217.6 183.7L218.7 183.4L220.9 182.5L220.8 181.8L220.2 181.1L220.2 180.5L219.9 179.8L219.2 178.4L218.7 178.7L217.9 179.2L217.1 179.6L216.3 179.8L215.5 180.2L214.7 180.4L214.1 180.2L213.6 179.8L213.9 180.8L213.0 181.6L212.3 181.9L211.7 181.8L211.4 182.3L210.5 182.5L209.9 182.6L209.3 182.8L208.7 182.9L209.0 182.2L209.4 181.7L209.5 181.1L208.6 181.7L208.3 182.3L207.6 183.3L207.0 183.0L206.4 183.1L205.8 183.1L205.1 183.0L204.8 182.4L204.7 181.4L204.4 180.8L203.8 180.5L203.2 180.0L202.3 179.3L201.2 179.1L202.0 178.2L202.5 177.7L203.1 178.2L204.1 177.4L203.7 176.6L204.7 175.4L205.0 174.9L205.3 174.3L206.2 172.9L207.2 171.4L207.8 171.5L207.6 170.8L208.5 171.0L208.8 169.9L208.8 169.2L209.6 169.1L210.5 168.9L211.0 168.4L212.6 167.8L213.3 167.8L213.5 167.1L212.9 166.6L212.3 166.0L212.6 165.5L212.2 164.2L211.7 163.8L211.5 163.2L211.3 162.5L210.3 161.7L210.2 160.5L210.9 159.3L211.4 159.0L210.7 158.2L210.0 158.1L209.1 158.5L208.9 159.1L208.4 158.0L209.1 157.6L209.4 155.9L209.8 155.2L209.7 154.4L209.4 153.9L210.1 153.9L210.9 153.9L211.8 152.5L212.1 151.1L211.9 150.2L211.1 149.5L210.2 149.1L209.7 148.7L209.4 148.2L209.3 147.3L208.9 146.8L209.5 146.3L210.2 145.9L210.8 145.1L209.5 145.0L209.0 143.7L208.7 142.2L209.1 140.5L210.0 138.7L209.8 137.8L209.4 137.4L208.6 137.0L208.0 137.0L207.1 136.3L207.0 135.3L207.1 133.5L207.2 132.8L207.2 132.2L206.6 131.8L206.0 131.4L206.0 130.8L205.9 129.5L205.3 130.0L204.8 130.3L204.8 131.4L204.6 132.3L204.4 133.6L204.8 134.4L205.2 135.3L204.5 135.8L204.0 136.1L203.2 136.5L203.2 137.1L203.4 137.7L203.9 138.3L204.6 138.2L205.2 138.7L205.8 139.6L205.6 140.2L205.4 140.9L205.0 142.1L204.5 142.5L204.3 143.1L205.4 143.5L205.8 144.1L205.2 144.5L204.5 145.7L204.4 146.4L204.6 147.0L205.0 147.5L204.7 148.8L203.9 148.8L202.8 148.3L201.8 148.2L201.5 148.8L201.4 149.5L199.8 150.0L199.1 149.8L198.3 149.6L197.5 149.6L197.0 148.1L196.8 147.5L197.2 146.8L196.5 146.2L195.7 146.2L195.2 145.9L193.9 146.7L193.6 147.2L192.7 146.8L192.4 145.7L193.0 145.6L194.3 144.7L194.7 143.9L195.5 143.1L194.9 142.6L194.2 142.2L193.2 141.9L192.6 140.2L191.6 139.6L190.8 138.7L190.3 137.6L190.6 136.6L191.0 135.7L191.8 134.9L192.3 133.8L192.3 133.0L192.9 132.7L193.5 132.6L193.9 132.1L194.0 132.7L194.8 133.7L195.4 135.0L195.5 135.6L195.9 136.0L196.6 136.7L196.7 137.3L197.3 137.3L197.6 136.7L198.2 136.2L198.8 136.0L199.7 136.0L200.3 135.7L201.0 134.8L201.2 134.1L201.6 133.3L202.3 133.0L203.1 132.5L202.8 131.9L202.9 131.2L202.3 131.0L201.8 130.8L200.4 130.4L199.8 130.1L199.1 129.9L198.6 130.2L198.2 130.9L198.4 130.2L199.1 129.8L200.2 129.0L200.7 128.5L201.4 128.2L202.5 127.6L203.0 127.3L203.6 127.0L204.3 126.5L205.8 125.3L207.4 124.3L207.9 123.7L208.7 123.3L209.3 122.5L209.3 121.8L209.1 120.9L208.9 120.1L208.5 119.3L208.2 118.8L207.7 117.8L207.5 117.2L206.7 117.5L205.8 117.7L204.9 117.7L204.4 118.2L203.6 118.6L203.0 118.8L202.7 119.3L202.4 119.8L201.8 119.8L201.3 119.1L200.9 118.1L200.7 117.0L201.5 116.6L201.1 115.4L200.5 114.8L199.9 114.6L199.2 114.4L198.6 114.3L198.1 114.8L197.5 114.1L198.0 113.8L198.6 114.0L199.2 113.7L199.8 112.9L200.1 112.3L200.0 111.6L199.4 110.8L199.0 110.1L198.9 109.5L198.5 108.7L198.0 107.8L196.7 107.3L195.7 107.3L195.1 107.5L194.6 107.9L194.4 108.7L194.6 109.4L194.5 110.2L193.6 110.6L194.1 111.5L194.6 111.9L193.9 112.7L193.1 112.7L192.4 112.9L191.4 114.0L191.6 114.6L192.5 114.7L193.1 114.6L193.9 114.9L194.2 115.7L193.3 116.7L192.8 117.0L192.4 117.6L191.1 118.8L190.5 119.0L191.0 118.7L191.7 118.0L190.6 117.0L190.2 116.6L190.5 115.8L189.7 114.9L188.5 114.0L187.8 114.0L187.5 114.5L187.6 115.1L186.9 115.8L186.3 116.1L185.7 115.9L185.0 116.2L184.3 116.0L183.5 116.1L183.5 117.0L183.9 117.9L184.2 118.7L186.2 119.8L186.3 120.8L185.7 121.3L185.0 121.8L184.5 122.5L184.7 123.1L184.5 123.7L184.0 124.1L183.4 124.5L183.0 125.4L182.6 126.0L181.8 126.3L180.9 125.9L180.7 124.5L180.3 122.6L179.4 123.7L179.6 124.3L178.1 125.0L177.4 124.9L177.0 124.4L176.8 123.6L177.3 123.3L177.8 122.8L177.3 122.5L177.2 121.7L177.5 120.5L177.0 119.9L177.6 118.9L178.1 118.5L178.0 116.2L176.8 115.5L176.0 115.0L175.0 115.3L174.3 115.4L173.7 115.3L173.1 115.7L172.3 114.9L171.8 114.1L171.1 113.9L170.0 114.3L168.6 115.1L168.0 115.1L168.0 114.5L167.5 113.1L166.9 112.8L166.5 113.2L165.5 112.9L165.3 112.3L165.2 111.5L165.0 112.1L164.6 112.7L164.0 112.9L163.6 112.2L163.5 111.6L164.1 111.4L164.1 110.8L164.5 109.7L164.7 108.9L164.2 108.4L163.3 107.9L163.0 107.3L163.4 105.6L164.5 104.4L165.2 103.7L166.0 103.2L166.5 103.6L167.2 103.8L167.5 103.2L167.8 102.6L169.6 101.6L170.1 102.0L172.3 103.2L173.4 104.0L174.0 103.4L174.8 103.1L175.4 103.5L176.1 103.6L176.8 104.0L177.8 104.9L178.3 104.7L179.0 104.5L179.8 104.9L180.5 105.3L181.6 105.5L181.8 105.0L182.1 104.3L182.8 104.3L183.1 105.8L183.9 105.7L183.8 104.4L183.4 103.7L182.4 103.3L181.9 103.0L181.3 102.6L181.1 102.0L180.5 101.9L180.3 101.2L180.8 99.9L181.2 98.6L181.9 97.4L181.9 96.8L182.4 96.3L183.1 96.2L182.9 95.5L182.8 94.8L183.1 94.3L183.9 93.6L184.5 93.6L185.6 93.7L185.5 92.8L186.1 92.7L186.3 93.3L186.4 93.9L186.9 94.3L187.2 95.3L187.0 95.8L187.6 96.2L188.2 96.3L188.8 96.2L189.4 96.0L189.8 95.3L190.7 95.5L191.4 95.3L192.8 95.5L193.0 96.7L192.5 97.0L192.9 98.0L193.5 97.8L195.4 98.0L196.2 96.7L196.6 96.2L197.0 95.5L197.4 94.7L197.3 93.9L196.7 93.6L196.4 92.8L196.7 92.3L197.3 92.5L197.9 92.7L198.6 92.2L199.2 91.6L199.7 91.0L200.1 90.6L200.6 90.2L200.5 90.9L200.2 92.3L200.4 93.1L200.2 93.8L200.2 94.7L200.6 95.2L200.3 96.2L199.9 96.8L199.5 97.2L199.4 98.1L199.0 98.9L199.3 99.6L198.7 100.5L198.2 100.8L197.9 101.5L197.6 102.3L197.3 102.9L197.6 103.5L198.3 104.1L198.3 105.1L197.8 105.6L197.6 106.2L198.2 106.8L198.8 106.7L199.5 106.8L201.0 106.2L201.3 105.0L201.8 104.8L201.7 105.4L201.3 105.9L201.3 106.6L201.6 107.3L201.4 107.9L200.3 107.7L199.7 108.1L199.9 108.7L200.1 110.1L200.3 110.7L200.9 110.7L201.3 110.2L202.0 110.0L202.7 110.8L203.4 110.9L203.5 110.3L203.9 109.8L204.4 110.0L204.2 110.6L204.3 111.4L204.7 112.0L204.6 112.7L204.2 113.2L204.6 113.9L205.2 114.1L206.0 113.5L206.1 112.8L206.8 111.4L207.6 110.4L207.6 109.8L207.3 109.3L208.3 108.6L208.8 108.1L209.5 108.2L209.2 109.0L208.7 109.7L208.4 110.6L208.0 112.0L208.0 112.9L209.3 113.4L209.6 112.4L209.7 111.7L210.3 110.7L210.9 110.9L211.3 111.5L211.9 111.8L212.0 112.4L211.7 113.1L212.7 113.8L212.5 114.5L212.2 115.1L211.5 115.5L210.8 116.3L211.5 116.7L210.7 117.3L210.1 117.4L209.5 118.1L209.2 118.7L209.9 119.1L210.6 118.7L211.3 118.9L211.4 120.1L211.0 120.7L211.5 122.2L212.0 122.5L212.7 122.2L213.3 122.0L214.4 122.7L215.2 122.5L215.8 122.4L216.5 122.6L216.4 121.9L215.5 120.4L214.8 119.6L214.8 119.0L215.1 118.4L215.4 117.9L215.8 117.3L216.8 116.8L217.3 116.5L218.0 116.3L218.9 115.7L219.8 114.9L220.9 112.9L221.2 112.3L221.4 111.7L222.1 111.3L222.4 110.7L220.9 109.9L219.9 109.2L219.4 108.7L218.7 108.5L218.2 108.2L219.1 107.9L219.9 107.8L220.8 107.7L221.4 107.5L222.4 107.3L223.0 106.5L223.4 105.8L224.0 104.8L223.5 104.2L222.4 104.2L221.8 104.2L220.2 103.2L219.4 103.5L218.6 103.5L218.0 103.3L217.4 103.1L216.7 102.9L216.1 103.1L215.4 103.0L214.8 102.1L212.2 96.7L211.8 96.0L211.1 95.9L210.6 96.3L209.4 95.3L208.9 94.5L208.7 93.6L208.5 93.1L208.0 92.7L207.6 91.6L207.9 90.8L206.7 90.3L206.2 90.7L205.8 90.3L205.7 89.7L205.2 89.1L204.4 88.0L203.3 88.0L203.4 87.4L203.3 85.9L202.5 84.5L203.3 84.0L204.3 83.7L205.7 82.7L205.4 82.1L204.9 81.5L205.0 80.7L205.6 80.6L206.9 78.3L206.5 77.3L205.9 77.6L205.3 78.1L204.4 79.0L202.0 79.8L202.2 80.5L202.1 81.1L200.7 81.5L199.9 81.6L198.8 82.1L198.6 81.4L199.0 79.3L199.5 78.6L199.9 77.4L198.8 77.2L199.1 77.8L199.2 78.4L198.3 79.1L197.6 79.1L197.1 79.4L195.5 79.3L194.6 79.0L194.3 78.4L194.9 76.5L194.5 76.0L194.7 76.8L194.4 77.5L193.7 77.8L193.1 77.6L192.5 77.3L191.9 77.4L191.3 77.7L191.3 75.9L191.1 74.7L191.3 73.4L191.4 72.4L191.6 71.8L192.0 70.7L192.6 69.4L192.7 68.6L192.9 67.8L193.5 67.2L194.5 68.1L195.4 69.2L196.3 69.7L196.9 69.5L197.0 68.8L196.3 68.1L196.1 67.4L196.6 66.3L196.2 65.5L195.8 64.9L196.4 64.1L197.2 63.8L197.9 63.6L199.1 62.7L200.4 62.0L198.6 62.9L198.1 63.3L196.3 62.9L197.0 60.9L197.7 60.2L198.8 59.3L200.6 59.1L201.3 59.1L201.7 59.9L202.8 59.7L203.4 59.5L204.3 59.5L205.0 59.6L205.3 58.9L204.6 58.9L204.3 58.3L204.4 57.7L205.0 57.7L205.7 56.4L206.0 55.8L206.4 55.0L206.8 54.3L206.6 53.7L206.3 52.9L206.7 51.5L207.0 51.0L206.9 49.7L206.9 49.0L207.4 47.8L207.8 47.2L208.3 45.7L208.7 45.0L208.7 44.4L208.5 43.4L208.6 42.8L209.0 42.3L209.5 41.9L209.7 41.2L209.8 40.6L210.0 40.0L210.6 38.8L211.5 38.8L211.9 39.2L211.7 40.0L212.3 40.4L212.4 39.8L213.6 40.1L215.4 39.8L215.8 40.3L216.1 40.8L216.6 41.5L217.2 41.7L217.8 41.5L218.4 41.4L219.6 41.7L220.3 42.8L220.6 43.9L220.8 43.2L220.4 42.6L220.1 41.9L218.8 41.2L218.1 41.1L217.4 41.4L216.8 41.2L216.3 40.6L215.8 39.8L214.8 38.6L214.7 38.0L213.9 37.4L213.3 37.3L212.6 35.7L213.0 35.2L212.5 34.6L212.5 33.1L212.0 32.7L211.5 32.3L211.7 31.3L212.5 30.5L213.1 30.1L211.8 30.2L212.2 29.0L212.8 28.6L213.0 27.8L212.5 27.1L213.7 26.1L214.2 25.8L215.0 24.9L214.5 24.5L213.1 23.3L213.7 23.7L214.9 24.8L215.5 24.3L216.2 24.5L217.1 24.7L217.6 24.2L218.2 24.0L218.8 23.9L219.9 24.6L221.1 24.5L221.7 24.7L222.5 24.8L223.3 24.9L224.3 25.1L225.0 25.0L225.7 24.7L226.1 24.1L226.9 24.8L226.9 25.6L227.3 26.5L228.4 27.8L229.1 28.2L229.4 28.8L229.4 29.7L229.1 30.3L229.2 31.2L229.1 32.5L228.7 33.0L227.9 33.7L226.6 34.5L227.2 34.8L227.6 35.6L228.1 36.7L229.2 37.3L230.2 37.6L230.3 38.3L230.2 39.5L230.1 40.6L230.1 41.5L229.8 42.1L229.4 42.5L229.6 43.4L230.2 43.5L230.7 42.8L231.6 41.5L232.1 41.0L232.7 40.6L233.5 40.6L233.6 41.7L234.2 42.9L234.8 43.5L235.0 44.1L234.5 45.9L234.3 47.0L234.3 47.7L234.0 48.5L233.7 49.0L234.6 49.4L235.1 49.8L235.5 50.6L235.7 51.8L235.8 52.4L236.5 52.7L236.9 53.2L236.9 53.8L237.6 54.1L238.7 53.2L239.4 53.4L240.0 53.0L240.5 52.5L241.2 52.4L241.7 52.8L242.4 52.9L243.0 52.9L243.4 53.4L244.1 53.2L245.0 53.2L246.0 54.1L246.3 54.8L246.8 55.0L247.4 55.4L248.5 54.0L248.6 52.7L248.6 51.5L248.0 51.4L247.5 51.8L247.0 51.5L247.2 50.7L247.0 50.1L247.4 48.8L247.9 48.3L249.5 48.5L250.4 48.4L250.9 48.0L251.2 47.3L251.8 47.5L252.2 47.9L253.4 48.7L254.9 49.9L255.6 50.1L256.6 50.7L257.7 50.7L258.5 50.6L259.1 50.7L259.7 50.5L260.0 50.0L259.7 49.3L260.4 48.9L261.0 49.2L261.5 48.6L262.4 46.9L262.8 46.0L262.7 45.4L263.0 44.6L263.5 44.3L263.9 43.2L264.7 43.3L265.3 43.6L266.1 44.0L267.0 44.2L267.5 44.7L268.0 44.3L268.8 43.3L269.6 43.4L270.4 43.5L271.0 41.9L271.2 41.2L271.3 40.6L271.5 39.8L272.4 39.8L273.0 40.0L274.0 39.9L274.7 39.6L275.7 38.4L276.0 37.7L276.5 37.2L276.8 36.5L276.7 35.9L276.9 35.0L276.7 34.2L276.5 33.4L276.4 32.6L275.8 32.0L275.1 31.9L275.0 31.3L275.6 31.1L276.7 30.9L277.7 30.4L278.0 29.8L278.7 29.4L279.4 29.0L279.7 28.5L280.0 27.8L280.4 27.3L281.3 27.2L281.0 26.2L280.7 25.6L280.8 24.8L280.8 22.7L280.3 21.7L279.7 21.4L278.9 20.9L278.7 20.3L278.3 19.5L278.6 18.4L279.5 18.7L280.1 18.9L281.5 17.5L281.7 16.7L282.0 16.0L283.0 15.1L283.8 14.8L284.6 14.8L285.2 14.5L286.8 14.0L287.4 14.3L288.1 14.5L288.8 14.7L289.8 14.6L290.4 14.6L291.1 14.6L292.0 14.6L292.7 14.5L293.3 13.3L292.9 12.7L293.0 11.7L293.1 10.7L293.9 10.2L295.0 10.0L295.7 10.1L296.0 10.6L296.4 11.5L297.2 11.8L297.8 11.8L298.4 11.9L298.9 12.6L298.5 13.8L298.5 14.6L298.2 15.2L298.0 15.8L298.6 15.9L300.3 15.2L301.5 15.6L302.0 16.0L302.9 16.3L303.6 16.2L304.2 16.2L305.1 16.7L305.4 17.2L305.9 17.6L306.7 17.9L306.9 18.6L307.6 18.9L308.5 19.1L309.5 19.5L309.9 20.3L310.2 20.9L311.0 21.2L310.0 22.4L309.7 23.0L310.2 23.7L311.0 24.0L310.8 24.6L310.5 25.6L310.8 26.2L311.5 26.3L311.9 26.8L311.8 27.4L312.4 27.6L313.0 27.4L313.8 28.2L314.1 28.8L313.5 29.9L313.6 30.6L315.4 30.1L316.1 29.8L316.7 29.8L316.5 30.9L316.2 31.6L316.7 32.3L317.5 32.6L318.2 32.5L319.0 32.6L320.1 32.4L320.9 32.1L321.5 32.2L322.3 32.5L324.1 32.0L324.6 31.4L325.2 31.3L325.3 30.4L325.2 29.5L324.9 28.8L324.5 28.2L324.1 26.4L324.1 25.6L324.3 24.6L325.4 24.4L325.9 24.7L326.6 23.9L326.7 23.3L326.8 22.7L327.9 21.7L328.9 21.5L329.6 19.7L330.0 18.6L329.8 17.6L329.9 16.1L330.4 15.5L331.9 16.2L332.4 16.6L332.8 17.1L333.4 16.8L334.0 16.2L334.6 15.6L335.3 15.5L336.1 15.3L336.6 15.1L337.0 15.7L337.2 16.6L336.9 17.3L336.9 19.2L337.1 19.8L337.4 21.5L337.5 22.7L337.9 23.5L338.8 23.2L339.7 23.7L340.3 24.8L339.8 25.9L339.5 26.7L339.5 27.5L339.3 28.2L339.1 29.0L339.1 29.8L339.3 30.7L338.5 31.4L337.3 31.5L336.6 31.3L335.3 31.3L335.4 32.6L336.0 33.7L336.8 34.3L337.6 35.0L337.9 35.6L337.7 36.1L338.3 36.3L339.1 36.8L339.8 36.8L340.3 36.3L340.9 35.5L341.4 35.8L341.9 36.2L342.2 36.7L342.7 37.2L342.7 37.8L342.5 38.4L342.9 38.9L343.6 39.5L343.5 41.0L343.1 41.5L342.9 42.1L343.5 42.5L343.8 43.2L343.5 44.2L343.4 44.9L343.8 45.5L343.6 46.3L342.9 46.8L341.8 46.6L341.2 46.0L340.3 45.9L340.1 47.1L340.1 48.0L340.0 48.6L339.6 49.2L338.9 49.8L338.5 50.4L339.1 51.2L340.1 51.7L342.0 51.5L342.7 52.3L343.2 52.8L343.9 52.8L345.7 53.1L346.2 53.5L347.0 53.8L347.7 54.1L348.6 55.0L349.1 55.3L350.2 55.4L350.8 56.0L351.6 55.8L352.4 55.8L353.1 55.8L353.7 55.3L354.6 54.9L355.1 54.5L355.4 53.9L356.3 53.6L357.5 53.5L358.1 53.7L358.8 53.6L359.1 52.3L359.8 51.4L360.5 50.7L361.4 49.5L361.8 49.0L362.6 48.6L363.3 47.9L363.9 47.7L364.2 48.3L365.7 47.7L366.3 47.3L366.8 46.8L366.5 47.7L366.4 48.4L366.6 49.4L367.0 49.9L367.9 50.6L368.5 50.8L369.1 51.2L369.4 51.7L370.0 51.9L370.8 52.0L371.5 52.0L372.1 51.6L372.6 50.2L372.7 49.3L372.8 48.5L373.2 47.9L373.6 47.3L374.2 47.3L375.0 47.4L375.9 47.5L376.3 48.0L376.6 48.6L377.2 48.9L377.7 49.6L378.2 50.2L378.9 50.6L379.6 51.3L380.0 52.0L380.6 52.5L381.5 52.8L382.1 52.5L382.8 52.4L383.4 52.6L384.0 52.6L384.9 52.4L386.6 52.3L387.6 52.5L388.2 52.9L388.9 53.4L389.8 54.0L390.3 54.5L391.1 54.7L392.0 54.5L392.6 54.2L393.3 54.2L394.0 53.9L394.5 53.2L395.2 53.1L395.3 52.4L396.1 52.0L396.9 51.8L398.6 51.3L399.1 51.0L399.8 50.5L400.6 50.5L401.2 50.9L401.6 51.4L402.8 52.3L403.4 52.2L404.1 52.6L404.6 53.0L404.9 53.8L405.3 54.9L406.1 55.2L407.0 54.7L407.4 54.1L407.8 53.5L407.8 52.6L408.5 52.3L409.0 51.6L409.0 50.9L409.4 50.2L410.2 49.9L410.9 49.0L411.3 48.2L412.0 47.2L412.3 46.6L412.5 45.7L413.2 44.7L413.3 43.9L413.4 43.3L414.5 42.5L415.3 41.5L416.3 40.8L417.0 40.3L417.6 40.8L419.9 40.9L420.7 40.2L421.5 40.1L422.3 40.2L423.0 39.8L423.9 40.1L424.5 40.1L425.2 40.7L426.2 41.5L427.7 41.2L428.4 41.1L429.4 41.5L430.0 42.1L430.4 42.5L431.1 42.9L431.7 43.2L432.3 44.2L433.0 44.4L433.6 44.6L434.3 45.2L434.7 46.2L435.1 46.9L435.7 47.2L436.6 47.2L437.2 47.5L437.3 48.6L437.8 49.0L438.6 49.3L439.4 49.7L439.9 50.4L441.0 50.6L442.3 51.1L443.1 52.3L443.5 53.0L444.3 53.6L444.1 54.3L444.1 54.9L444.2 56.3L444.3 56.9L445.6 57.9L446.0 58.7L446.8 60.7L447.0 61.6L447.5 62.3L448.0 62.9L448.0 63.6L448.6 63.8L449.2 64.0L449.8 64.5L450.5 65.0L451.0 65.6L451.2 66.6L451.3 67.2L451.7 67.7L451.5 68.4L451.4 69.7L451.5 70.3L452.1 70.7L452.6 71.6L452.6 72.8L452.8 73.4L453.0 74.2L452.9 74.9L452.9 76.8L452.6 77.4L452.2 77.9L452.2 78.6L452.4 79.8L452.8 80.7L453.0 82.1L452.4 82.5L453.0 83.2L453.3 83.9L453.7 84.5L454.3 84.8L454.8 85.4L455.2 86.1L455.9 86.6L456.7 87.4L457.1 88.3L457.8 89.2L458.2 89.7L459.0 90.1L459.9 90.1L460.6 90.3L461.1 91.0L462.0 91.6L462.7 92.3L463.5 92.8L463.9 93.3L464.3 93.9L464.7 94.3L465.4 95.1L466.0 95.6L466.4 96.1L467.0 97.1L467.4 97.9L467.6 98.6L467.6 99.3L467.6 100.0L467.6 101.3L467.6 103.2L468.1 104.3L468.7 104.7L469.2 105.1L469.9 105.9L470.6 107.0L471.2 107.9L471.8 108.8L472.9 109.4L473.6 109.7L475.1 110.5L475.8 111.2L476.1 111.7L476.3 112.3L476.4 113.0L476.5 113.7L477.2 114.3L478.0 114.8L478.7 115.2L479.9 115.7L480.8 115.7L481.6 116.1L482.0 116.8L482.4 117.9L482.6 119.0L482.6 119.7L482.7 120.3L482.8 121.0L483.2 121.5L483.6 122.2L484.0 122.7L484.3 123.2L485.2 123.9L485.7 124.9L485.8 126.5L485.5 127.8L485.1 129.2L484.8 129.8L484.6 130.7L484.6 131.5L484.3 132.1L483.7 132.7L483.3 133.4L482.8 133.9L482.3 134.3L481.6 134.6L481.2 135.2L480.4 137.3L479.8 138.0L479.4 138.4L479.3 139.5L480.0 139.2L480.6 138.9L481.1 139.4L481.8 140.2L482.2 142.3L482.0 142.9L481.8 143.6L482.2 145.4L481.6 145.5L480.8 145.5L479.0 145.5L478.0 145.5L477.5 145.2L477.3 144.5L476.9 143.7L476.7 143.0L476.5 141.8L476.7 141.2L477.6 140.4L478.2 140.1L479.2 139.6L479.0 139.0L477.5 139.1L476.5 139.8L474.8 140.3L474.2 140.7L473.2 141.8L472.6 142.3L472.2 142.8L471.7 143.5L470.9 144.6L469.5 145.5L468.9 145.8L468.6 146.4L468.5 147.2L468.0 147.7L467.8 149.1L467.1 148.7L466.7 148.2L466.1 147.7L465.5 147.3L465.0 146.8L463.5 146.0L462.3 147.9L462.0 148.4L461.7 149.0L461.4 149.7L461.3 150.3L461.3 150.9L461.8 151.5L462.5 152.0L462.9 152.9L462.3 153.4L460.8 154.5L460.1 155.0L457.9 156.7L456.6 157.7L455.7 156.6L455.2 155.2L454.2 153.9L453.8 153.3L454.4 152.8L456.8 152.3L458.2 152.0L458.9 151.9L459.6 151.7L458.4 151.6L457.7 152.0L456.9 151.9L456.0 152.1L455.0 152.2L453.3 152.4L453.2 151.6L452.7 150.9L452.6 150.2L451.9 150.5L451.6 149.8L451.6 149.1L450.3 148.2L449.2 147.6L448.6 147.3L446.5 147.9L445.0 148.3L444.6 149.0L444.7 149.7L446.0 149.1L447.0 149.1L448.1 150.6L449.5 152.3L449.9 152.9L450.3 154.0L450.9 154.7L451.5 155.0L451.4 155.6L450.5 156.4L449.9 156.9L448.6 157.9L446.9 159.3L446.8 159.9L447.2 160.8L447.8 161.7L448.6 162.6L449.0 163.1L449.3 163.8L449.5 164.5L450.0 164.8L450.5 164.2L451.1 164.0L449.7 165.1L450.3 165.7L450.9 166.1L450.8 165.3L451.3 164.9L452.1 165.8L452.4 166.4L452.9 166.9L453.4 167.3L454.1 167.3L455.6 167.0L455.9 168.5L454.7 168.7L454.2 168.3L454.1 169.4L455.3 170.7L456.0 171.3L456.8 170.7L458.3 169.8L458.8 169.3L459.6 168.6L460.8 167.5L461.6 167.6L462.1 168.2L462.6 169.0L463.4 168.3L464.4 167.4L464.9 166.9L465.6 165.7L466.5 164.3L467.2 163.0L467.6 162.3L468.0 163.0L468.4 163.7L469.6 163.7L470.5 163.8L472.6 163.8L473.3 163.4L473.7 163.0L474.6 163.2L475.1 163.9L475.7 164.8L476.8 165.4L477.3 165.6L477.0 164.2L476.5 163.6L478.3 163.1L479.0 163.2L479.7 163.0L480.9 162.6L482.6 163.0L483.3 163.3L483.7 164.5L483.6 166.1L483.5 167.2L483.4 168.4L483.3 169.1L482.8 169.7L482.2 170.2L482.1 170.9L482.1 171.8L482.1 172.6L482.7 172.7L483.4 172.7L483.1 173.3L482.5 173.2L482.0 173.6L482.1 174.4L482.0 175.3L481.7 175.9L482.2 176.6L482.3 177.5L481.4 177.9L480.4 178.0L480.0 178.5L479.5 179.8L479.7 180.9L479.3 181.8L478.8 182.4L478.1 182.8L477.7 183.3L477.6 183.9L478.0 185.0L478.5 185.4L479.2 186.7L479.3 187.4L479.0 188.8L479.4 189.4L480.0 189.9L479.4 189.7L478.6 190.0L478.2 190.9L478.6 191.3L479.5 192.0L479.5 193.2L478.9 193.7L478.2 193.8L477.7 193.4L477.0 193.6L476.3 193.5L475.5 193.1L475.0 194.4L475.1 195.0L474.3 195.4L473.6 195.7L473.0 196.1L472.2 196.5L471.2 196.6L470.4 196.9L469.5 197.7L468.3 197.5L468.6 197.0L467.8 196.0L466.2 194.9L465.7 194.4L465.1 194.7L464.7 194.3L463.4 192.7L463.4 191.5L462.8 191.4L461.9 191.0L461.4 190.4L461.0 189.4L461.5 189.0L460.3 189.0L459.8 190.4L460.3 191.0L459.8 191.4L459.3 191.7L458.8 192.8L458.5 193.6L458.2 194.6L457.1 196.0L456.8 196.7L456.8 197.6L456.7 199.2L457.2 200.3L457.3 200.9L456.7 201.2L456.0 200.6L455.5 200.0L454.3 199.9L454.3 199.1L454.4 198.5L453.8 198.2L452.9 199.4L453.2 200.4L452.2 200.3L451.7 200.7L451.8 201.8L452.4 202.3L453.2 202.7L454.3 203.7L453.3 204.9L453.4 205.7L455.0 206.8L455.6 206.2L456.6 206.7L456.0 206.8L455.4 207.1L454.4 207.6L453.4 207.1L452.8 206.5L452.3 206.8L452.8 207.3L453.1 208.0L454.1 208.3L454.6 208.8L454.6 209.4L455.2 209.9L455.3 210.6L455.2 211.3L455.5 212.8L455.2 213.3L454.9 214.3L454.7 215.0L455.9 215.2L456.3 214.7L456.9 214.4L457.3 214.8L456.8 215.8L456.2 215.8L455.4 216.0L456.7 216.3L456.3 216.7L455.7 217.0L455.4 218.0L456.4 218.3L457.3 218.9L458.0 220.1L456.2 220.8L455.7 220.4L456.0 219.9L455.7 219.3L455.1 219.1L454.4 219.5L453.9 219.9L453.9 219.3L453.8 218.7L453.0 217.6L451.9 216.7L451.3 216.4L450.7 216.2L449.8 216.1L449.3 215.7L448.5 215.4L447.8 215.0L447.1 214.7L446.5 214.4L445.4 214.4L444.7 214.6L444.1 215.0L443.8 215.7L444.1 217.4L444.5 217.8L445.3 219.3L444.2 219.0L443.8 218.4L443.5 217.2L442.9 216.4L442.5 215.0L441.9 213.9L441.4 213.6L441.0 213.1L440.5 212.6L440.0 213.0L439.2 211.8L439.2 211.2L439.4 210.2L440.4 209.7L441.2 209.6L441.6 208.7L440.6 207.9L440.1 208.2L439.4 207.6L439.0 207.1L439.2 206.1L439.1 205.4L439.2 204.7L439.6 204.2L440.4 204.2L440.2 203.7L440.6 202.8L441.3 203.0L442.1 203.1L442.6 202.7L443.5 202.9L444.0 203.3L444.9 204.4L444.9 203.6L444.3 202.5L443.3 201.7L442.4 201.9L442.1 202.5L441.4 201.6L441.6 200.7L440.5 200.8L440.4 201.4L440.1 202.5L439.5 202.3L439.8 201.6L440.1 200.5L440.3 199.3L439.6 199.5L439.1 199.9L438.6 199.6L439.0 199.0L439.3 198.5L439.4 197.9L440.0 198.0L441.1 197.3L441.6 196.8L441.7 196.2L441.1 195.6L441.1 194.9L441.7 195.1L442.0 195.6L444.0 195.0L444.6 194.6L444.8 194.0L444.4 193.2L445.1 193.0L445.7 193.0L445.7 192.2L445.2 191.6L445.8 191.3L446.3 191.7L447.2 191.8L447.6 190.9L447.3 190.3L446.7 190.2L445.9 190.2L446.6 189.5L446.9 188.7L446.6 188.1L446.0 186.6L445.2 185.8L445.1 186.6L444.7 187.7L444.1 187.6L443.4 188.0L443.5 187.3L443.9 185.8L443.2 184.4L442.8 183.8L442.1 183.9L441.4 183.9L441.6 183.0L442.1 183.2L442.8 183.3L443.1 182.7L442.6 182.0L442.4 181.3L442.0 180.4L441.4 179.7L440.6 179.1L440.6 178.3L441.0 177.8L440.8 177.1L440.4 176.5L439.8 176.1L438.2 175.7L437.6 175.9L437.6 176.5L437.0 176.8L435.5 176.5L435.0 176.1L434.4 175.5L434.1 175.9L433.7 174.5L433.9 173.6L434.1 172.9L434.4 172.3L435.5 171.4L436.3 170.7L436.7 170.2L436.8 169.5L437.5 168.3L437.5 167.5L436.9 168.0L435.9 168.1L434.8 167.7L434.3 167.3L433.6 166.0L433.6 164.7L433.5 164.1L433.0 163.7L432.8 162.7L432.5 161.7L432.4 161.1L432.3 160.4L432.5 159.2L432.2 159.8L431.6 160.2L430.6 160.1L430.0 160.2L429.1 160.0L428.2 160.0L427.6 159.7L427.0 160.0L427.1 161.7L427.7 161.7L427.9 162.7L427.8 163.3L427.6 163.9L427.0 164.2L427.2 164.9L427.6 165.4L427.5 166.5L427.2 167.2L426.2 168.0L425.1 168.0L423.9 167.5L422.5 167.2L422.0 167.7L421.4 168.1L420.6 168.1L419.5 168.3L419.0 168.9L417.1 169.3L416.8 167.9L416.4 167.4L417.0 167.1L416.3 167.0L416.0 167.9L415.6 169.3L415.0 169.5L414.4 169.7L414.0 170.3L413.1 170.3L412.2 169.5L411.6 168.8L412.1 169.6L412.8 171.1L412.0 171.3L410.6 171.6L410.0 171.8L409.4 172.0L408.7 172.0L407.9 171.5L407.3 171.2L406.6 170.0L406.1 169.5L405.3 169.2L404.0 169.3L403.3 169.5L402.4 169.4L401.1 169.0L400.6 168.6L400.0 168.5L400.1 169.1L401.0 169.5L401.7 170.0L402.5 170.5L403.1 170.6L404.1 170.9L404.6 171.3L405.5 171.6L406.0 171.8L406.8 173.1L407.3 173.8L407.6 174.6L408.2 174.7L408.7 174.2L409.3 174.1L410.0 174.5L411.4 174.5L412.9 175.4L413.8 175.0L414.1 174.3L414.6 175.0L413.8 175.6L412.8 175.9L412.4 176.4L411.8 177.5L411.2 177.7L410.5 177.6L409.8 178.2L408.3 179.0L408.2 180.5L407.7 180.2L407.3 180.8L407.1 181.5L407.7 181.8L407.0 181.8L406.5 182.3L406.6 183.2L406.4 184.4L407.2 184.5L407.5 184.0L408.0 184.3L408.6 185.1L409.2 185.3L409.6 185.8L409.1 188.0L408.6 188.8L407.1 189.8L406.5 190.1L405.5 190.1L403.8 192.5L404.1 193.2L404.4 193.7L404.9 194.1L405.3 195.5L405.0 196.0L405.6 196.6L406.2 197.3L407.0 197.8L407.8 198.0L407.3 198.3L407.0 199.1L407.2 199.7L408.5 201.0L409.6 200.8L410.6 201.5L410.3 202.1L409.5 201.9L409.8 202.5L411.2 203.3L411.9 203.7L412.5 204.0L412.9 204.7L413.8 204.9L414.1 205.6L414.8 207.5L415.4 207.5L415.0 208.3L414.4 208.3L414.8 209.0L415.6 208.7L416.2 208.1L417.0 208.2L417.6 208.6L418.3 208.9L418.9 209.6L418.5 210.8L418.0 211.7L418.4 212.1L419.6 211.3L419.8 210.8L420.5 210.4L420.6 211.0L421.1 211.4L422.0 211.9L422.6 211.7L423.1 211.3L423.3 211.8L423.9 212.5L423.9 213.2L423.9 213.8L425.2 214.6L425.8 214.6L426.5 214.6L426.9 215.1L427.0 215.9L427.4 216.5L426.6 216.8L425.1 216.0L424.5 215.2L423.9 216.3L424.0 216.9L422.9 217.0L422.5 216.3L421.8 215.0L421.1 215.4L420.8 216.0L421.4 217.2L422.5 217.8L423.0 218.1L423.7 218.2L424.4 218.6L425.1 218.6L426.2 218.5L427.2 219.2L427.7 218.7L428.3 219.3L428.1 220.0L427.9 220.6L428.2 221.6L428.5 222.2L428.5 223.0L428.9 223.9L429.6 224.7L430.1 225.9L430.3 226.8L430.1 228.4L430.6 228.8L430.0 228.9L429.4 228.8L428.4 229.5L427.9 230.7L427.4 231.3L426.8 231.5L426.3 232.5L426.4 233.2L425.3 233.0L425.1 232.4L424.5 232.4L424.3 233.3L423.6 233.3L423.3 232.7L422.5 232.4L421.4 231.9L421.5 231.1L421.4 229.4L420.7 229.2L419.7 230.1L420.3 230.3L420.5 230.9L419.5 231.8L418.3 232.7L417.4 232.5L415.8 231.3L416.0 230.7L415.9 230.0L415.2 230.2L414.7 230.6L414.0 230.7L413.2 231.3L412.5 231.3L412.0 230.8L412.2 230.2L411.4 229.6L410.6 229.7L409.7 229.7L408.8 230.0L408.3 230.4L408.0 231.6L408.3 232.4L409.0 233.0L409.6 232.7L410.2 232.1L410.8 232.1L410.6 233.0L410.0 233.6L410.0 234.3L409.8 235.0L409.0 235.6L408.5 236.0L408.5 236.7L409.7 237.4L410.3 237.6L410.9 237.9L411.5 237.7L412.0 237.3L412.6 237.3L412.2 237.8L412.6 238.2L413.1 237.8L413.7 237.7L412.6 238.5L412.9 239.1L414.3 238.7L414.7 238.2L415.3 237.9L415.1 238.7L414.6 239.0L414.7 239.7L415.3 239.2L415.8 238.8L416.7 239.4L416.5 240.1L415.5 241.0L414.9 240.8L414.5 241.3L415.7 241.6L416.4 242.5L416.1 243.0L415.7 242.5L414.9 242.5L414.6 243.3L414.1 244.1L413.9 244.7L414.0 245.6L414.4 246.4L415.1 246.6L414.9 247.2L414.2 247.0L413.6 247.0L414.2 247.4L415.1 247.9L415.1 248.6L414.2 248.8L413.4 248.1L412.7 247.8L412.8 247.2L412.3 246.6L411.7 246.7L410.8 246.9L410.3 247.2L410.0 247.8L410.6 248.4L410.3 249.1L410.1 249.9L409.3 250.5L408.5 250.3L407.7 250.2L407.8 249.5L407.2 249.2L406.7 249.4L406.7 250.1L405.4 250.6L404.5 250.7L405.0 251.1L406.2 252.5L406.6 253.2L406.8 253.9L407.4 254.3L406.8 255.5L406.2 255.2L405.6 255.7L405.3 255.1L404.7 254.8L404.3 255.3L404.1 256.2L403.4 256.5L402.6 256.0L402.5 255.3L401.7 253.9L401.1 253.6L400.5 253.7L400.0 254.1L400.2 254.7L400.1 255.3L399.8 256.1L399.2 257.1L398.6 256.7L399.2 256.4L399.0 255.6L398.4 255.7L398.0 255.2L398.0 254.6L397.3 254.5L397.6 255.3L397.5 256.4L396.8 256.5L396.1 256.7L395.8 257.3L395.0 257.5L394.4 257.3L394.4 258.0L395.0 258.2L396.2 258.5L396.7 259.3L396.0 260.5L395.5 260.1L394.6 259.2L394.1 258.9L393.2 259.5L393.3 260.1L392.9 260.6L393.2 261.2L393.8 260.7L394.4 260.8L395.0 261.4L396.0 261.9L396.6 262.1L397.1 262.7L397.2 263.8L397.2 264.6L396.4 265.2L395.6 265.5L394.9 265.9L394.5 265.3L393.8 265.9L393.3 265.5L392.5 265.1L392.4 264.5L391.7 263.8L390.7 264.2L390.3 263.0L391.0 262.6L391.5 262.8L392.4 263.1L392.1 262.3L392.0 261.7L391.4 260.9L390.6 261.0L390.2 261.5L390.0 262.1L390.2 261.0L390.2 260.3L389.6 260.5L389.0 260.7L389.3 260.1L389.7 259.5L389.6 258.8L388.3 258.8L387.8 258.0L387.3 257.6L385.5 256.7L385.0 256.4L384.8 256.9L384.2 256.8L383.2 256.1L383.4 255.5L383.6 254.4L384.2 253.5L385.0 253.6L385.4 254.1L386.0 253.8L385.7 253.1L385.2 252.9L385.8 252.6L385.9 251.4L385.1 251.0L384.1 250.2L383.3 249.2L382.8 248.9L381.3 248.2L381.2 247.4L380.9 246.9L380.3 246.5L379.6 246.3L379.0 246.2L378.4 246.3L378.3 247.8L379.3 247.9L378.3 247.9L377.7 247.3L377.1 247.5L376.0 247.2L375.9 246.6L376.3 245.8L375.3 245.2L374.6 245.2L374.1 244.3L373.9 243.7L373.7 243.1L373.2 243.8L372.8 244.3L372.7 244.9L372.2 245.4L371.6 244.8L371.4 246.5L371.9 247.1L371.4 247.6L371.3 247.0L370.2 245.7L369.4 245.0L368.9 244.0L368.1 243.7L366.9 243.8L366.2 243.9L365.3 244.0L364.7 244.7L364.3 245.2L364.8 245.7L364.5 246.3L364.0 246.9L363.3 245.4L362.4 245.4L360.4 245.7L360.0 245.2L359.9 246.1L358.9 246.5L358.2 245.9L357.6 245.9L357.0 245.8L355.5 244.6L354.9 244.4L354.1 244.2L354.2 242.4L354.1 241.7L353.2 240.9L352.7 240.4L352.5 239.4L352.7 238.1L352.6 237.1L353.2 236.3L354.2 235.4L355.4 233.9L356.2 233.7L356.8 233.7L356.9 233.1L356.4 232.5L357.1 232.2L357.8 231.8L358.6 230.9L358.3 229.5L358.7 228.7L358.9 228.0L359.5 227.0L359.8 227.6L359.8 228.3L360.8 229.0L361.5 229.3L362.2 229.5L362.8 229.4L363.4 229.0L363.9 228.6L363.9 227.7L363.2 226.7L363.5 226.1L364.2 224.6L364.1 223.8L364.2 222.6L364.4 222.0L364.0 221.5L364.2 220.7L365.1 219.8L365.6 219.6L366.1 219.2L366.6 218.5L366.9 217.6L367.4 216.6L368.0 216.4L368.6 216.1L368.7 215.5L368.8 214.6L369.2 215.1L369.8 215.3L370.5 215.1L372.0 214.6L374.2 214.0L375.0 213.8L375.2 212.7L375.2 211.7L375.4 211.2L375.7 209.9L375.8 209.2L376.0 208.1L377.8 207.2L378.2 206.8L378.2 206.0L377.7 205.4L376.9 204.7L377.6 204.7L378.0 204.1L377.5 203.5L377.6 202.6L378.2 202.7L378.9 202.3L379.5 201.2L379.9 200.7L379.7 200.2L380.5 199.9L381.3 199.7L381.7 199.3L382.2 198.9L383.1 199.7L383.7 199.4L384.2 199.0L384.5 198.4L385.1 198.0L385.6 198.2L385.1 199.0L384.9 199.8L385.4 200.1L385.7 201.2L385.8 201.8L385.5 202.5L386.2 203.0L386.7 203.5L386.3 203.9L386.5 204.9L385.9 205.2L385.5 205.8L385.6 206.9L385.1 207.8L384.9 208.9L385.3 209.4L386.4 210.0L386.4 210.7L387.0 210.7L387.7 210.5L388.8 210.5L389.4 210.6L390.1 210.9L390.8 211.0L392.2 211.4L392.7 210.6L393.1 210.1L393.4 207.8L393.1 207.3L393.7 206.1L394.8 205.3L394.6 204.4L395.0 203.5L395.4 203.0L395.6 201.6L396.0 200.8L396.7 200.6L397.9 200.5L398.0 199.5L397.9 198.8L397.4 199.2L396.8 199.4L396.1 199.2L395.7 198.0L395.5 197.2L395.0 195.8L394.8 194.1L394.9 193.2L394.7 192.5L394.7 191.7L394.7 190.7L394.7 190.0L393.2 189.9L392.6 189.7L391.3 189.9L390.1 190.5L389.7 191.4L389.1 192.1L388.4 193.2L388.3 194.2L388.2 194.9L387.6 195.1L387.2 194.6L386.6 193.8L385.9 194.0L385.3 194.3L385.3 193.4L384.7 192.8L383.9 192.5L383.6 193.0L383.3 193.5L382.6 193.9L382.3 194.9L381.7 194.8L379.9 192.4L380.1 191.8L380.0 191.0L379.1 189.8L378.6 189.0L378.4 188.3L377.9 188.0L375.9 188.4L375.0 189.0L374.6 189.6L372.0 192.8L371.4 193.4L371.8 194.3L371.8 195.1L370.8 197.1L370.7 197.7L370.5 198.4L369.9 199.1L369.6 199.6L369.2 200.1L369.2 200.7L368.7 201.2L367.7 201.7L367.4 202.6L367.2 203.3L366.5 204.0L365.4 204.6L364.7 204.6L364.0 204.4L363.3 204.5L362.5 204.7L361.3 204.7L360.7 204.5L359.8 204.2L359.0 204.3L358.3 204.3L357.8 203.9L357.0 202.5L355.7 202.0L354.6 202.3L353.6 203.4L352.7 204.2L352.4 204.8L351.9 206.2L351.6 207.2L351.4 207.8L350.6 208.4L349.9 208.6L349.5 209.1L349.1 209.8L348.5 210.0L347.8 210.1L347.1 210.2L346.7 210.7L345.9 211.1L345.3 211.2L344.6 211.6L343.3 211.6L342.7 212.3L342.3 213.1L342.1 213.8L342.5 214.6L341.7 215.0L341.2 215.5L340.8 216.2L340.2 217.2L339.7 217.7L339.3 218.4L338.7 218.2L337.7 218.2L336.8 218.7L336.3 219.1L336.0 219.6L335.6 220.1L335.0 220.1L334.4 220.2L333.8 220.7L332.7 221.1L331.3 221.0L330.5 220.9L329.6 220.7L328.8 220.6L327.8 220.5L327.1 220.5L326.5 220.4L324.3 220.7L323.5 221.0L322.9 220.8L322.3 220.2L321.6 219.6L322.2 220.6L322.6 221.0L323.5 221.5L324.0 221.4L325.5 221.2L326.1 221.2L326.9 221.4L327.6 221.7L328.2 221.8L328.8 221.4L329.0 222.0L328.8 223.2L330.1 224.5L330.7 224.5L331.5 224.8L331.7 225.5L331.2 225.8L330.4 226.3L329.9 226.0L329.3 226.3L329.9 226.6L329.9 227.6L328.8 228.4L328.7 229.3L328.7 230.4L328.5 231.4L327.8 232.2L326.7 233.1L326.1 233.2L325.8 233.8L326.5 234.5L327.1 234.8L327.8 235.1L329.6 235.5L330.0 235.0L330.5 234.6L331.3 234.5L331.0 235.1L331.1 235.8L330.7 236.5L330.8 237.1L330.8 237.9L330.2 237.3L329.6 236.5L328.4 236.4L327.8 236.7L327.3 237.9L327.7 239.1L327.3 239.6L327.2 240.2L327.6 241.1L327.9 241.9L327.2 241.8L326.6 243.7L326.3 245.1L325.4 248.4L325.0 249.1L324.2 249.2L323.7 249.5L323.9 250.2L323.7 250.9L322.9 252.1L323.5 251.9L322.9 252.2L323.3 253.5L324.2 254.2L324.9 254.5L325.7 255.4L325.8 257.2L325.6 258.2L325.5 259.0L325.1 258.4L325.0 257.8L323.6 257.1L322.9 258.0L322.6 258.4L322.8 259.1L321.5 259.1L320.9 259.0L321.0 258.4L320.3 257.9L319.8 257.3L319.4 256.2L318.9 255.8L318.4 256.2L318.3 257.2L317.7 256.9L317.8 258.2L318.1 258.7L318.3 259.6L318.3 260.4L319.1 261.2L319.5 262.2L318.7 262.8L318.2 263.2L317.9 263.7L317.9 264.5L316.4 264.6L315.6 264.4L315.5 263.8L315.3 263.2L314.3 263.1L311.6 262.8L310.4 262.6L309.7 262.5L308.5 262.3L308.3 262.4ZM226.6 193.1L225.5 193.2L225.0 193.5L224.2 193.6L223.5 194.1L223.2 194.6L222.8 195.4L222.4 195.8L221.2 194.8L221.4 194.2L221.6 193.6L221.0 193.4L221.2 192.6L221.0 192.0L219.8 192.6L219.2 193.2L217.3 193.2L217.1 192.5L216.8 191.8L216.1 191.9L215.7 192.5L215.0 193.6L215.0 194.2L215.6 194.7L216.2 195.2L215.8 195.8L215.0 195.5L214.2 195.2L213.4 194.9L212.7 195.1L211.9 195.1L211.3 194.9L210.7 194.5L211.3 194.8L211.9 195.0L212.0 194.2L211.8 193.3L210.3 192.8L210.4 193.5L210.5 194.1L209.7 194.4L209.1 195.2L208.8 196.4L212.0 197.0L213.9 197.5L215.7 197.9L223.6 200.3L225.0 198.4L224.9 197.7L225.3 197.2L225.8 196.1L226.1 195.2L226.1 194.6L226.5 194.2L226.6 193.2L226.6 193.1ZM292.2 116.4L293.2 116.1L293.9 116.3L294.4 115.1L294.7 114.5L295.5 114.0L296.2 114.0L297.2 113.7L297.6 113.2L298.3 113.1L298.9 113.2L299.4 112.9L299.9 111.6L300.6 111.3L301.2 110.6L301.5 110.0L302.2 109.9L302.7 110.4L303.3 110.8L304.6 111.0L305.2 110.7L305.6 110.3L307.3 109.2L307.8 109.6L308.4 110.0L309.0 109.7L309.6 109.4L310.4 109.4L311.1 109.3L311.9 108.3L312.3 107.8L312.8 107.3L313.5 106.9L314.2 106.8L315.0 107.7L315.3 109.0L316.0 109.8L316.6 110.2L316.6 111.0L317.3 111.0L318.8 111.2L319.4 111.4L320.1 111.4L320.8 111.1L321.7 109.9L321.8 109.2L322.2 108.4L322.6 107.9L323.3 107.3L324.5 107.1L325.8 106.8L327.5 106.2L327.8 105.5L327.6 104.6L327.3 103.3L327.8 102.3L328.3 102.0L329.5 101.5L329.8 101.0L330.8 99.9L331.5 98.9L332.2 98.5L332.2 97.6L331.8 97.0L331.7 96.4L331.7 95.0L331.4 94.0L331.5 93.2L331.7 92.2L331.6 91.6L331.7 90.9L332.2 90.3L332.3 89.7L331.9 89.1L332.2 88.5L332.9 88.7L334.1 88.3L334.3 87.5L334.2 86.8L333.4 86.5L332.3 84.9L331.5 84.0L330.1 83.1L329.4 82.9L328.8 83.4L328.2 83.6L327.7 83.2L327.0 83.2L326.7 84.1L326.0 84.1L325.4 83.7L324.6 83.8L324.4 85.0L323.7 84.9L323.3 84.1L322.0 82.7L321.8 81.9L322.4 81.1L322.9 80.2L323.1 79.4L322.3 79.2L321.3 78.1L320.9 77.3L320.4 76.6L319.8 75.6L319.9 75.0L320.3 74.4L319.8 73.1L319.3 72.7L318.7 71.9L318.3 71.4L317.8 71.0L317.1 70.7L316.6 70.1L316.8 69.4L316.8 68.8L316.6 68.2L316.0 67.4L315.0 67.3L314.4 67.2L313.1 66.2L312.4 65.9L311.2 66.0L310.7 66.3L310.4 66.9L309.9 67.3L308.8 67.8L308.2 68.5L307.6 68.9L306.3 68.6L306.1 67.6L305.5 67.9L304.5 68.6L304.0 69.0L303.0 69.0L302.5 69.4L302.5 70.1L301.4 70.8L300.3 71.1L299.7 71.1L298.4 71.8L298.2 72.4L297.7 72.9L296.9 73.2L296.2 72.8L295.6 72.5L295.3 73.1L295.1 73.9L294.2 73.9L293.3 74.3L292.6 74.9L292.0 75.2L291.4 75.8L291.3 75.1L289.4 75.4L289.0 74.9L288.4 74.4L287.5 74.4L286.7 74.1L286.0 73.5L285.4 72.8L284.1 72.3L282.9 72.0L281.8 72.0L281.4 71.6L281.5 70.2L281.8 69.6L282.2 69.1L282.6 68.6L283.0 67.4L283.2 66.8L282.5 65.9L281.9 66.1L281.3 66.4L280.6 66.4L280.2 67.0L279.3 67.6L278.6 67.7L277.9 67.3L277.5 68.1L277.1 68.7L276.5 69.5L276.6 70.3L276.3 71.1L275.8 71.5L275.3 72.3L275.2 73.2L274.5 74.1L274.3 74.7L274.6 75.6L274.5 76.3L274.2 77.0L273.7 77.3L272.7 77.2L271.9 77.8L271.1 78.4L269.9 77.9L268.9 77.0L268.2 76.6L267.6 77.3L267.3 78.0L266.6 79.3L266.1 79.9L266.1 80.8L266.1 81.7L266.0 82.3L265.4 82.2L265.0 81.7L264.4 81.8L263.4 82.1L262.4 82.1L262.0 81.8L261.3 82.0L261.7 82.8L262.2 83.6L262.9 83.9L263.4 84.6L264.2 86.3L264.9 86.5L264.9 87.4L263.8 87.9L263.2 88.2L262.3 88.4L261.6 88.8L261.4 89.7L261.6 90.4L261.1 91.0L261.2 91.6L260.9 92.3L260.8 93.0L259.9 93.3L260.1 93.9L260.7 93.9L261.2 94.4L261.3 95.1L261.6 95.6L261.6 96.4L261.4 97.1L261.3 98.2L261.0 99.7L261.5 100.3L261.7 101.1L262.1 101.5L262.8 101.3L263.7 101.3L264.4 102.0L264.4 102.6L264.0 103.1L264.5 103.6L265.9 103.5L266.5 103.0L267.1 102.9L267.5 102.4L267.6 101.8L268.5 102.0L269.2 102.5L269.7 102.9L270.6 102.4L270.9 101.7L271.6 101.5L272.0 102.0L272.5 102.4L273.2 102.3L273.8 102.2L274.3 102.6L276.1 102.9L276.7 102.7L276.6 101.9L277.3 102.0L277.8 102.7L279.1 103.5L279.7 104.1L280.3 104.5L281.1 106.0L282.1 106.8L282.8 106.9L283.0 108.1L283.4 108.7L283.6 109.5L283.8 110.7L284.5 111.7L284.3 112.3L283.6 112.5L283.0 112.5L282.4 112.4L281.3 112.8L281.1 113.4L281.5 113.9L281.6 114.6L282.2 114.4L282.5 113.8L283.1 113.5L283.8 113.7L284.1 114.2L284.0 114.8L283.9 115.4L284.3 116.0L284.8 116.2L285.7 116.2L286.3 115.9L287.1 115.7L287.7 115.3L288.3 114.8L289.3 114.3L289.7 114.8L290.5 114.9L291.0 115.7L291.1 116.3L291.8 116.7L292.2 116.4Z" fill="#9aa3b8" fill-rule="evenodd"/></svg>
