<svg xmlns="http://www.w3.org/2000/svg" viewBox="0 0 443 564" preserveAspectRatio="xMidYMid meet"><path d="M83.0 495.9L83.8 495.9L83.9 494.7L84.0 494.0L84.8 492.2L86.6 489.9L87.1 489.4L80.1 482.1L75.9 478.1L71.6 473.9L68.6 471.0L67.1 469.6L65.0 467.5L64.3 466.6L63.6 465.1L61.9 464.8L63.1 464.7L64.0 465.0L64.7 464.4L64.6 463.2L64.4 462.3L64.2 461.3L63.9 460.6L62.7 458.3L62.2 457.8L61.9 456.9L63.0 456.0L63.2 455.3L58.9 455.3L58.3 455.9L57.1 457.0L58.8 455.3L59.5 455.2L61.4 455.1L62.1 455.0L63.2 454.7L63.8 454.2L64.1 453.5L65.0 452.3L67.9 451.5L66.8 449.6L66.0 449.2L65.4 448.9L64.2 448.3L62.2 449.1L61.3 449.4L60.5 449.8L59.5 449.9L58.5 449.7L57.6 450.0L56.3 450.8L55.0 450.9L54.2 450.8L54.0 449.9L54.8 449.8L56.3 448.8L56.8 448.3L57.3 447.6L56.3 445.5L56.2 444.4L55.6 441.5L55.1 440.9L55.7 440.4L56.0 442.2L57.0 442.1L58.6 439.6L59.3 437.5L60.1 437.1L59.0 436.2L57.0 436.5L55.3 438.3L55.1 439.2L54.6 439.6L53.9 439.6L53.8 438.5L54.5 437.9L55.3 436.6L54.6 436.5L54.9 435.1L55.3 433.7L55.7 431.6L56.5 428.3L56.8 427.3L57.1 426.2L57.3 424.8L57.2 424.0L56.8 421.6L56.2 420.6L55.6 419.8L54.6 418.6L54.0 417.7L53.3 416.3L53.0 414.1L53.4 413.4L53.3 412.6L52.7 410.3L52.9 409.6L53.3 409.0L54.2 408.4L54.7 407.8L55.1 406.9L55.1 406.1L54.9 405.3L54.5 404.7L54.0 404.1L53.2 403.4L51.6 401.9L48.5 399.1L50.4 400.8L52.2 402.4L52.8 401.7L53.6 401.3L55.3 400.7L56.1 400.7L57.3 399.0L57.4 398.1L57.4 397.3L54.1 396.8L53.4 396.9L48.8 398.2L48.2 398.6L47.8 399.2L47.4 399.9L47.6 399.2L48.0 398.6L48.6 398.2L53.1 396.8L53.8 396.7L55.1 396.8L56.5 396.9L57.5 396.9L57.5 400.6L57.5 401.4L57.5 402.4L58.2 402.6L58.9 402.7L59.5 403.1L61.0 401.6L61.7 401.1L63.4 401.0L64.6 401.4L64.4 402.2L64.1 402.8L63.6 403.5L62.2 404.5L61.2 404.8L62.0 408.4L62.2 409.3L63.1 410.7L64.0 410.7L64.6 410.3L65.2 409.7L65.5 409.0L66.9 408.9L68.4 409.1L69.8 409.5L70.4 410.1L71.1 410.4L72.0 410.4L72.8 410.3L73.4 410.8L74.2 411.3L75.8 411.3L76.5 411.2L77.5 411.0L78.8 411.9L79.4 412.8L80.3 413.7L80.9 413.2L81.7 412.2L82.4 411.8L83.3 411.8L84.1 411.9L85.0 411.8L86.9 411.8L87.7 412.2L87.7 413.0L87.7 413.9L88.5 413.8L89.6 413.8L90.0 414.4L90.0 415.3L90.6 414.7L91.9 414.0L92.7 414.1L93.3 414.6L93.5 415.2L93.6 417.3L93.6 418.6L94.1 419.1L94.8 419.6L95.5 421.2L96.5 420.5L96.4 419.5L95.7 419.5L95.1 418.9L94.4 417.8L94.1 416.8L94.2 415.1L95.4 415.4L96.8 415.6L97.7 415.7L97.8 414.4L97.7 413.5L97.5 412.5L97.3 411.4L98.4 410.4L98.9 409.9L98.6 407.7L98.1 406.9L99.9 405.4L102.0 406.1L103.5 406.8L104.2 407.0L104.5 406.1L103.6 405.8L103.2 405.0L102.3 403.0L102.1 401.8L102.6 400.3L102.5 398.9L102.5 396.5L103.2 396.4L104.6 396.6L105.3 396.7L106.3 397.2L107.1 397.7L107.8 398.5L108.3 399.2L108.9 400.3L109.2 401.2L109.5 402.5L110.2 403.1L111.2 403.0L112.0 403.0L112.7 403.6L112.7 404.4L113.4 405.7L114.0 406.6L113.7 405.8L113.2 404.9L112.9 404.3L113.0 403.3L112.4 402.8L111.7 402.6L110.8 402.5L110.1 402.3L109.7 401.5L109.6 400.8L109.4 399.9L109.0 399.2L108.2 397.9L107.4 397.1L106.8 396.7L106.2 396.3L106.3 394.8L102.9 394.2L102.3 394.9L101.4 395.7L100.3 396.0L97.7 396.6L96.2 396.2L95.9 396.9L90.8 396.9L83.7 394.4L82.3 393.7L81.9 394.5L79.8 393.7L79.9 393.0L79.0 392.7L76.3 391.7L75.1 390.8L74.3 390.7L73.5 390.6L72.7 390.3L71.8 390.0L70.5 389.4L68.9 388.0L67.3 386.7L65.2 386.3L64.4 386.2L63.7 386.3L62.7 386.3L62.0 385.5L61.5 384.3L60.6 382.9L58.9 383.3L56.6 384.1L55.0 384.6L54.1 384.9L50.4 386.2L47.0 387.4L44.1 388.4L43.2 388.7L41.5 389.6L38.9 391.4L37.9 392.1L36.2 393.3L32.8 395.8L31.6 396.5L32.7 397.6L33.4 397.5L32.7 397.9L32.5 398.8L33.0 400.0L33.8 399.1L34.6 397.8L38.5 400.3L40.1 401.3L41.2 402.0L39.1 400.8L37.1 399.5L34.7 397.9L33.5 399.7L34.5 399.7L35.0 400.4L36.9 402.2L37.6 402.7L38.7 403.3L41.8 404.7L43.5 406.3L44.0 406.8L44.8 407.4L45.7 408.0L45.7 407.2L46.0 406.5L47.3 406.1L48.8 405.7L49.6 405.3L51.6 406.1L50.8 407.3L50.9 408.8L50.6 407.8L51.3 406.7L51.8 406.1L51.6 405.3L51.2 404.5L50.6 403.9L48.3 401.9L50.8 403.9L51.3 404.6L51.7 405.4L51.9 406.3L51.9 407.0L51.7 407.7L51.4 408.4L50.9 409.0L50.4 409.6L49.9 410.4L49.7 411.2L49.7 412.1L50.0 413.1L50.8 415.0L51.2 416.1L51.5 416.9L52.2 418.0L53.3 419.6L54.1 420.7L54.8 421.8L55.3 423.2L55.4 425.5L55.4 426.3L55.5 427.2L55.4 429.2L55.2 430.6L54.8 432.8L54.5 433.6L53.7 434.8L52.7 436.2L51.5 434.5L51.3 433.4L51.5 432.6L51.4 431.9L51.2 431.2L51.5 430.6L52.2 430.5L52.9 429.6L52.8 428.7L52.3 428.0L51.5 427.4L50.9 427.0L49.9 426.4L47.4 425.8L47.2 426.5L47.0 427.4L46.9 428.2L46.3 432.0L46.5 430.8L46.7 429.6L46.8 428.8L46.9 428.0L47.1 427.2L47.2 426.4L47.1 425.7L46.4 425.5L46.3 424.7L46.2 423.9L45.6 423.0L45.4 419.7L45.3 418.9L44.2 420.0L44.4 420.7L44.1 421.4L42.8 420.8L42.3 420.1L41.6 419.7L41.1 420.3L41.3 421.0L40.9 421.6L40.2 421.2L39.2 421.0L38.6 421.5L37.2 421.1L36.4 420.4L35.6 419.8L34.4 419.9L35.3 420.3L36.8 421.4L37.6 422.1L39.2 423.6L40.0 423.9L41.1 424.8L41.6 425.4L42.0 426.8L42.1 427.6L42.4 428.5L42.9 429.2L42.0 429.7L40.6 428.4L39.7 428.1L39.3 429.1L38.8 430.5L38.2 431.8L36.6 433.5L37.3 432.8L37.9 432.3L38.2 431.7L39.3 429.1L39.0 429.7L39.2 428.7L39.6 428.1L38.9 425.9L38.5 424.6L38.2 425.2L38.2 426.0L36.6 427.3L35.4 427.6L34.7 427.5L34.5 426.7L33.9 424.9L30.5 424.8L30.5 426.4L30.0 428.0L29.6 429.0L29.0 429.8L28.5 430.3L28.1 431.1L28.0 432.2L28.5 432.8L26.5 435.2L25.8 434.3L25.7 433.6L25.3 433.0L24.6 432.2L24.0 431.7L23.3 431.7L22.5 431.8L22.5 431.1L21.0 430.6L20.9 429.8L20.8 428.2L20.5 427.5L21.6 426.8L22.6 427.0L23.3 427.3L24.0 427.0L24.6 426.0L23.4 424.1L21.1 423.7L20.1 423.5L19.5 421.7L20.1 422.0L20.6 421.5L20.6 420.7L20.6 419.9L21.6 419.8L22.7 419.9L23.4 419.9L24.1 419.7L24.9 419.1L26.5 418.7L27.3 418.8L28.1 418.8L27.3 418.0L26.9 417.3L25.9 416.6L26.0 415.0L26.0 413.6L26.3 412.9L26.5 411.4L25.3 409.3L25.3 408.0L25.2 407.2L24.5 406.7L23.4 404.8L22.4 404.1L22.1 402.1L21.5 401.7L20.8 401.5L20.1 401.4L19.1 400.8L19.0 400.1L18.6 399.2L17.8 399.0L17.1 398.6L18.9 399.1L20.2 399.9L22.3 400.6L24.0 400.4L24.7 401.2L24.0 401.4L24.4 403.1L25.9 402.9L27.0 402.4L27.6 402.0L28.0 401.3L29.0 399.7L29.7 399.1L30.2 398.6L30.8 398.1L30.6 396.6L30.0 395.6L29.3 395.3L30.1 395.3L30.4 395.9L31.1 396.7L31.7 396.2L33.1 395.2L37.7 391.9L38.4 391.4L39.7 390.5L39.8 389.5L40.4 388.9L41.2 388.8L42.1 388.6L43.2 388.1L44.1 388.0L46.8 387.1L53.3 384.9L54.4 384.5L55.7 384.1L56.4 383.8L65.2 380.8L66.3 380.4L66.9 379.9L66.8 378.8L65.7 378.2L65.1 377.9L65.8 375.6L66.4 375.1L67.2 375.2L68.4 374.9L70.0 374.4L70.0 373.6L69.7 372.9L70.2 372.2L70.6 371.6L71.4 370.5L72.2 369.6L73.6 367.6L74.1 367.0L76.1 364.4L77.8 362.3L78.3 361.5L79.3 360.3L80.3 360.7L82.8 361.9L83.1 361.3L82.4 360.2L81.4 359.7L80.8 360.1L80.2 359.6L80.5 358.9L82.0 356.9L83.3 355.8L85.1 356.0L86.7 356.2L87.5 356.3L88.3 356.2L89.0 356.1L89.6 357.2L91.5 357.4L92.4 357.4L93.1 357.9L93.7 358.3L94.4 357.8L94.7 357.1L96.1 358.4L96.7 357.9L97.2 357.3L97.9 357.1L98.4 357.8L97.9 357.0L97.7 356.2L97.6 355.2L97.5 353.6L98.2 353.1L97.4 353.5L97.4 354.2L96.6 354.0L97.0 352.4L96.6 353.7L97.3 354.5L97.6 355.9L97.3 357.0L96.3 358.1L95.3 357.5L94.8 357.0L94.3 357.5L91.9 357.0L90.6 357.1L90.5 356.3L89.7 355.4L89.0 355.3L87.8 355.2L87.1 355.1L85.6 354.9L85.0 353.8L85.7 352.4L86.3 351.9L86.7 350.1L87.1 349.2L86.7 348.3L86.6 347.2L86.3 346.3L88.0 345.1L88.8 344.9L89.8 345.0L90.6 344.8L91.3 344.4L91.8 343.3L91.7 342.2L92.0 341.3L91.6 339.7L91.2 338.3L91.9 337.1L91.8 336.3L92.8 335.5L93.5 335.4L94.4 335.3L94.7 334.4L94.1 333.0L94.3 331.0L94.5 329.9L94.6 328.6L94.1 327.9L93.5 327.3L92.7 327.1L90.9 327.2L90.7 326.5L90.1 325.9L89.1 325.6L88.3 325.3L87.2 324.1L87.0 323.4L86.6 322.6L85.3 321.9L84.5 321.9L82.9 321.3L82.7 318.4L82.8 317.6L83.2 316.5L83.3 315.7L83.0 314.7L82.9 314.0L82.7 313.1L83.9 310.4L85.0 310.5L85.9 310.1L86.9 309.7L87.8 310.1L88.5 309.2L88.6 308.5L88.6 307.6L88.5 306.9L88.5 305.4L88.5 303.1L88.5 302.3L88.7 301.6L89.2 300.9L89.2 299.9L89.5 298.2L90.1 296.6L90.4 295.4L90.8 296.0L92.1 297.4L92.8 297.2L93.7 297.5L94.1 298.1L96.0 298.3L96.9 298.3L98.1 299.1L98.8 300.1L99.1 301.7L100.7 301.6L100.8 300.4L101.6 299.7L102.3 299.5L103.3 299.2L104.9 300.4L105.9 300.5L106.7 300.4L107.4 300.4L107.9 301.0L108.1 302.0L108.1 302.9L108.8 304.3L109.5 304.7L110.0 305.8L109.2 306.8L109.1 308.5L108.8 309.2L108.7 310.6L108.6 312.1L109.5 312.2L109.5 312.9L108.6 313.0L108.0 313.4L107.8 315.4L107.2 316.5L106.2 317.1L105.5 317.1L105.6 318.7L107.3 319.8L108.3 320.8L107.7 321.6L107.3 323.4L107.1 324.1L106.8 324.7L105.8 325.4L106.6 326.6L106.8 325.8L108.6 325.4L109.8 325.6L110.6 325.0L111.4 325.1L111.9 326.0L113.1 325.8L114.5 326.0L115.2 326.5L115.5 323.9L116.5 323.3L117.3 323.4L117.9 323.0L118.8 321.8L119.4 321.4L120.0 320.7L120.4 320.1L121.3 319.7L121.9 319.1L122.3 318.3L122.9 319.0L123.0 320.0L123.8 319.9L124.4 319.6L123.9 320.1L124.5 320.7L125.0 321.2L124.6 321.8L123.9 321.6L123.9 322.7L124.4 323.7L124.6 324.4L124.9 325.1L125.4 326.1L125.8 326.8L126.3 327.5L126.7 328.2L127.5 329.2L127.1 330.1L127.7 330.8L128.4 330.7L128.9 331.3L128.2 331.4L128.0 332.8L128.8 333.7L129.2 334.2L129.7 334.8L130.6 334.6L131.1 336.3L131.2 337.4L131.9 338.3L132.4 339.4L133.1 341.0L133.4 341.9L134.1 341.9L134.9 342.0L135.6 341.8L136.1 341.1L136.4 340.1L137.3 339.7L138.4 339.6L139.0 339.0L139.4 338.3L139.7 337.6L141.4 335.9L142.0 336.7L142.1 337.4L143.3 338.3L144.0 338.9L144.4 339.5L144.4 340.6L144.9 341.1L146.7 340.7L147.6 340.1L150.2 340.1L151.1 339.9L152.3 339.5L152.8 338.8L152.6 337.5L153.8 336.3L154.7 335.9L155.1 335.0L156.0 334.0L157.0 333.7L158.4 333.4L159.8 332.8L160.8 332.0L161.8 331.3L162.9 331.1L163.1 330.4L162.8 329.2L164.1 329.0L164.8 329.0L165.5 329.5L165.4 330.2L166.2 331.7L166.9 332.9L167.3 333.4L168.5 333.8L170.1 333.4L171.9 332.8L172.8 331.5L173.3 330.1L173.8 329.6L174.8 330.2L174.9 331.7L175.5 333.2L175.4 334.0L175.2 334.8L175.8 335.9L176.0 337.3L175.7 338.3L175.3 339.0L175.1 340.0L176.2 340.3L177.9 341.5L178.4 342.1L178.9 343.2L179.6 343.4L180.8 343.9L182.8 343.6L184.6 343.8L185.9 343.2L186.3 342.3L186.9 341.0L186.7 339.8L186.7 338.7L187.4 338.7L188.4 338.9L189.2 339.2L189.9 339.0L191.4 337.8L191.8 336.8L191.9 335.8L193.4 333.4L194.9 333.2L196.6 331.8L196.8 330.9L197.5 330.9L199.1 331.1L199.6 331.8L200.3 332.3L200.7 331.6L200.9 330.9L202.3 329.8L202.9 329.3L203.3 328.7L204.6 328.7L205.7 328.5L205.7 327.0L205.8 326.1L206.5 326.2L207.3 326.3L209.1 326.4L209.4 325.0L210.3 325.1L210.3 323.8L210.4 323.1L210.7 322.4L211.3 322.0L213.5 320.5L214.1 318.9L214.3 318.1L214.6 316.5L214.5 315.8L213.9 315.3L213.2 315.5L212.2 315.2L211.4 314.7L210.7 314.8L209.9 315.0L209.3 314.5L208.4 314.1L208.1 313.0L208.7 310.5L209.5 310.2L209.5 308.7L209.8 307.7L211.0 306.5L212.1 304.9L212.3 303.9L212.3 303.1L213.0 301.7L214.2 300.3L215.3 298.7L217.9 298.6L218.7 298.5L220.4 298.1L221.1 298.2L221.7 298.7L221.4 297.7L221.5 297.0L221.1 295.8L221.1 293.7L221.2 292.9L221.1 292.0L220.6 291.1L220.4 290.3L220.3 289.4L219.9 288.2L219.5 287.5L219.1 286.2L219.5 285.5L219.7 284.7L219.0 285.0L218.0 285.4L217.0 285.5L215.1 286.4L213.3 287.9L212.2 288.6L211.5 289.1L210.8 289.6L209.8 289.6L207.3 289.6L206.3 289.8L205.1 290.2L204.4 290.5L202.6 291.5L200.9 293.1L200.3 293.8L199.5 293.4L198.6 293.5L197.7 294.0L197.0 294.3L196.1 293.2L195.8 292.5L195.9 291.6L196.3 290.1L196.6 288.8L196.4 288.1L195.7 287.5L195.8 286.6L196.1 285.9L196.3 285.2L197.1 284.5L197.8 284.1L198.4 283.5L198.5 282.8L199.3 280.5L199.7 279.9L200.7 279.7L200.6 278.8L200.0 277.7L200.3 276.7L201.1 275.6L200.7 273.9L200.9 273.0L200.8 271.9L200.7 271.1L200.5 270.0L199.2 269.4L197.2 269.4L196.8 268.3L197.3 266.7L198.2 265.9L198.8 265.4L199.3 264.6L199.3 263.1L198.8 262.5L199.1 261.5L198.5 260.8L197.9 260.0L196.7 259.7L195.9 259.9L195.1 260.2L193.7 260.0L193.1 258.4L193.3 257.7L193.5 257.0L193.2 256.2L192.8 254.9L193.0 253.7L193.6 252.7L193.7 251.6L194.2 250.6L193.5 247.9L193.1 247.2L193.2 245.6L193.6 244.9L194.3 244.0L194.2 243.2L193.9 242.6L193.0 242.4L191.8 242.4L190.8 242.2L190.3 241.3L189.5 240.0L188.6 240.0L187.5 240.3L187.0 240.8L186.3 240.9L185.5 240.8L184.8 240.6L183.9 240.4L183.6 241.1L182.7 242.2L181.6 242.6L180.4 243.3L179.7 243.3L179.3 241.1L178.1 241.4L177.5 240.3L176.5 240.5L175.9 241.1L175.2 241.4L174.2 241.6L173.7 241.0L173.3 239.9L173.3 239.2L172.7 238.1L171.9 238.6L170.9 238.6L170.2 238.1L168.8 237.9L168.3 238.9L167.8 239.5L167.0 239.7L167.0 241.0L166.6 242.3L166.6 244.1L165.4 244.3L163.0 245.2L162.1 246.1L161.8 247.1L162.1 248.2L162.1 249.0L162.0 250.0L161.9 251.0L161.7 251.9L160.8 252.3L160.1 252.6L160.0 253.4L159.7 254.2L158.6 255.4L157.6 255.5L157.8 256.4L158.4 257.7L159.1 258.8L159.2 259.6L158.7 260.4L159.0 261.1L159.0 263.2L156.7 264.5L156.2 265.0L155.5 264.7L153.6 265.4L151.4 265.8L152.4 264.4L152.2 263.4L151.1 261.0L151.0 259.9L150.9 258.8L150.6 257.2L149.9 256.2L149.2 256.0L148.2 255.6L147.6 255.1L147.4 254.3L145.9 254.8L145.2 255.3L144.7 255.8L144.3 256.7L143.9 257.3L143.2 257.6L142.4 257.8L141.0 258.6L140.3 259.2L136.8 259.9L135.9 259.4L135.2 258.9L134.4 258.4L136.4 260.1L136.0 261.4L136.0 263.4L135.4 264.0L134.7 264.4L134.8 265.3L135.3 266.0L135.2 267.1L134.7 268.0L134.7 268.8L134.2 269.3L133.8 270.0L133.1 271.2L132.8 272.4L132.7 273.7L132.9 274.7L133.2 275.9L132.5 276.5L132.8 277.3L132.9 278.0L132.9 278.8L132.6 279.6L132.4 280.7L131.9 281.4L129.8 281.8L128.6 281.7L127.9 280.9L128.5 279.8L127.3 280.5L126.5 281.2L125.4 282.7L125.3 284.3L125.5 285.2L125.0 285.8L124.3 285.8L123.5 285.9L122.2 286.1L121.0 286.3L119.7 287.0L118.6 287.4L117.9 288.3L117.2 287.7L116.2 287.0L114.2 285.3L112.7 284.1L111.9 283.5L111.1 282.9L109.7 282.2L109.0 281.6L108.2 280.9L107.3 280.3L106.8 279.6L105.4 278.3L104.6 277.7L104.0 277.2L101.8 275.4L101.4 275.9L100.4 277.2L100.1 278.2L100.2 279.2L100.6 279.8L101.1 280.4L101.4 281.5L99.0 283.4L99.0 284.5L97.7 283.5L97.0 283.0L96.5 283.5L96.0 284.1L95.4 283.6L94.3 283.3L93.6 283.3L92.5 283.2L91.9 282.8L90.9 281.9L90.2 282.5L89.6 282.9L88.3 283.2L87.2 283.7L87.0 284.6L86.0 285.2L85.2 284.5L84.5 282.7L83.5 280.3L82.7 280.4L81.9 280.1L81.2 280.0L81.1 280.7L80.2 280.8L79.4 280.5L78.1 280.5L77.2 279.9L76.5 279.0L75.3 278.0L74.7 277.6L74.0 275.8L73.1 275.4L72.2 275.4L71.0 276.4L70.8 275.5L71.2 274.8L71.5 273.6L71.3 272.7L69.8 271.8L68.9 270.4L67.8 269.4L66.1 268.8L64.9 267.9L63.8 267.0L63.0 265.8L62.0 265.8L61.5 265.2L60.9 264.2L59.2 263.4L58.4 263.4L57.2 262.9L56.2 262.6L55.1 262.5L54.4 263.2L53.7 264.9L53.0 266.4L52.1 266.2L51.4 266.4L50.4 266.7L49.9 267.6L49.6 269.4L48.7 269.9L48.2 270.5L48.2 271.5L47.8 272.2L47.3 273.2L46.8 274.9L46.2 276.3L45.5 276.5L44.9 276.1L43.4 276.0L43.1 275.3L41.1 275.6L40.3 276.7L39.8 277.2L39.2 277.7L38.5 278.2L37.5 278.8L35.5 280.0L35.2 279.3L35.0 278.6L35.6 278.0L34.0 277.6L32.3 277.2L32.4 276.4L31.9 276.0L31.2 275.4L30.6 276.4L29.7 277.2L28.7 277.0L27.4 275.8L25.9 275.9L25.8 276.7L25.0 275.8L24.7 275.2L23.9 274.1L23.8 273.4L24.0 272.0L23.4 269.5L22.7 266.7L21.5 264.0L21.0 263.3L20.5 262.6L19.7 262.5L19.0 261.9L18.3 259.9L17.8 257.8L17.2 256.9L16.6 256.1L17.3 255.7L18.5 255.3L19.8 254.4L20.3 253.7L20.5 252.9L20.0 252.4L19.4 252.0L19.1 251.3L19.1 250.4L17.9 249.7L16.6 249.2L15.9 249.0L15.2 248.7L15.6 247.8L16.1 247.2L16.5 246.3L16.8 245.4L16.9 244.6L17.3 242.4L17.2 240.8L16.8 238.5L16.7 237.8L16.5 237.0L16.2 236.1L15.6 235.4L14.8 234.9L14.0 234.2L13.6 233.5L13.4 232.8L13.5 232.0L13.5 231.1L13.9 229.0L14.3 227.3L14.9 226.1L15.5 224.2L15.9 222.9L16.4 220.0L16.3 219.1L15.8 218.1L15.0 216.8L14.3 216.2L13.2 215.1L12.5 214.2L12.7 213.0L13.3 212.4L14.0 212.0L12.0 210.8L12.3 208.5L13.8 203.4L18.3 205.6L23.1 207.9L23.8 208.3L27.9 211.9L30.3 214.1L36.1 214.7L37.5 214.1L39.6 213.1L40.7 212.6L42.4 210.8L44.1 208.9L46.1 207.7L48.2 207.0L50.6 207.0L54.7 207.1L56.3 207.0L57.8 207.1L58.1 205.0L58.3 203.6L58.6 202.2L58.9 199.4L59.3 196.6L59.5 195.2L59.9 192.4L60.3 189.6L60.6 188.2L60.5 186.0L59.8 186.1L57.6 184.8L57.0 184.4L57.0 182.9L58.5 182.7L59.5 182.2L60.3 181.6L60.8 182.1L62.1 182.4L63.1 181.7L63.3 180.2L63.2 179.4L64.1 178.2L64.6 177.6L65.1 176.8L66.8 173.4L65.4 171.4L64.3 170.8L63.7 171.2L63.4 172.1L61.8 172.3L61.0 172.4L61.4 171.5L61.8 170.6L61.0 169.8L61.6 169.5L63.1 169.1L63.8 168.7L63.1 168.2L62.9 167.5L63.3 166.8L62.4 166.5L62.2 167.3L61.6 167.9L60.9 167.6L61.3 166.9L61.5 166.1L60.7 165.8L60.2 165.3L60.8 165.0L62.4 161.7L62.5 161.0L62.3 158.9L62.3 157.7L63.0 156.9L63.8 156.1L63.9 154.9L62.8 155.2L61.5 155.2L59.5 154.2L58.9 153.4L58.8 152.7L58.9 151.7L59.1 150.9L59.5 149.8L59.4 148.9L59.3 148.2L59.3 147.4L59.9 146.9L60.8 145.4L60.3 144.8L60.0 142.9L60.5 142.3L60.7 141.4L60.6 140.5L60.4 139.5L61.0 139.0L61.7 139.4L62.8 139.2L63.1 138.4L64.1 138.1L65.3 138.5L66.8 135.9L67.1 134.9L68.3 134.3L69.5 133.7L70.1 132.6L70.3 131.9L71.3 131.5L72.3 131.4L72.5 132.4L72.5 133.2L73.5 134.1L74.2 133.7L74.9 134.0L75.0 134.8L75.7 135.4L77.5 134.8L78.1 134.1L78.9 133.9L80.3 134.4L80.9 134.9L81.6 134.5L82.2 132.4L83.3 132.1L84.7 131.0L85.0 130.1L85.8 129.3L86.5 128.9L87.3 128.5L88.0 128.1L89.0 127.9L90.3 128.1L91.1 128.6L91.6 129.2L92.0 129.9L92.9 130.0L93.3 129.4L92.4 129.0L92.4 128.0L93.4 127.8L94.5 128.4L95.9 128.9L96.9 127.4L97.6 126.7L96.9 126.4L96.8 124.9L97.9 122.2L99.3 122.1L101.9 122.1L102.9 122.1L104.6 122.0L106.3 120.8L107.2 119.8L107.6 118.9L108.2 118.4L108.2 117.6L107.6 117.3L108.1 115.9L109.2 114.9L108.8 113.9L109.2 112.3L110.0 112.3L109.5 112.9L109.1 114.0L109.9 114.1L111.0 112.9L111.7 111.8L112.9 110.3L113.5 109.5L115.8 108.8L117.1 109.2L118.5 109.3L117.8 108.7L117.5 107.8L117.6 107.0L118.0 106.4L117.9 105.5L117.6 101.1L118.7 101.1L119.4 100.8L119.4 98.9L119.3 97.8L120.4 96.5L121.7 95.4L122.1 94.5L122.9 91.6L122.7 90.7L121.8 90.2L121.5 89.6L120.3 88.6L119.5 86.9L119.6 86.1L120.4 85.9L120.9 85.1L120.2 84.5L119.2 84.1L118.7 83.0L119.7 81.8L120.2 80.2L120.7 79.6L121.3 79.2L122.2 78.5L123.2 78.4L124.7 77.8L126.6 77.0L127.4 76.2L127.7 74.8L127.9 73.5L129.0 71.7L131.2 70.6L133.1 69.6L133.4 68.8L134.0 68.1L135.4 68.2L137.7 68.5L139.1 69.7L139.8 70.6L140.4 71.6L141.0 72.1L142.3 72.1L142.7 71.1L144.7 70.0L146.3 69.4L148.4 69.1L150.1 69.4L151.6 68.9L151.6 68.1L152.4 67.4L153.0 68.1L153.6 67.8L153.6 67.0L154.0 66.0L154.3 65.3L153.9 64.4L153.2 63.9L152.3 63.4L151.4 62.4L150.2 61.2L149.3 60.7L148.7 60.4L148.0 59.7L148.0 58.7L148.7 57.6L148.8 58.5L150.8 57.5L152.5 55.9L153.1 55.2L153.2 53.8L153.0 53.0L153.4 52.0L154.2 51.5L153.6 49.2L152.9 48.4L152.8 47.2L153.4 46.8L153.4 45.6L153.4 44.8L153.8 44.2L154.7 44.2L155.4 44.4L156.2 43.9L155.9 42.3L156.6 42.2L157.5 42.0L158.2 40.4L158.8 39.9L158.8 39.0L158.2 38.2L157.7 37.3L157.9 36.5L157.7 35.7L158.1 33.5L159.6 33.5L160.4 34.1L161.0 33.4L160.9 32.7L163.2 34.0L163.8 34.6L165.4 35.7L165.6 34.6L166.0 33.9L166.7 33.8L167.2 32.8L167.3 32.0L167.8 30.6L168.3 29.6L169.1 29.3L169.8 29.1L170.6 28.6L171.4 27.8L171.0 26.8L170.4 26.3L171.3 26.1L172.2 26.1L172.8 26.5L173.4 26.1L175.5 24.6L175.8 24.0L176.3 22.5L177.1 21.0L178.7 20.8L179.7 21.0L180.7 21.1L181.4 21.0L182.2 20.0L183.0 19.4L183.7 19.6L184.8 19.2L186.1 17.9L186.6 17.1L187.3 16.2L188.0 15.9L188.1 15.1L187.7 14.4L187.8 13.6L188.5 13.3L190.1 12.8L190.8 13.0L192.9 12.8L193.0 12.0L193.9 12.3L194.8 12.4L195.5 12.5L196.4 12.6L196.8 13.2L196.4 14.0L195.7 14.6L195.9 15.3L196.6 15.8L197.4 16.0L198.2 16.1L198.8 16.5L198.4 17.0L198.3 17.8L198.3 19.4L197.9 20.2L198.0 21.3L198.2 22.2L198.6 23.4L199.1 25.6L198.6 26.5L198.5 27.7L199.3 29.2L199.9 29.8L200.7 29.6L201.2 30.1L202.0 30.8L202.7 31.2L203.4 30.9L204.7 30.9L206.3 30.9L206.7 29.8L207.8 29.5L208.7 29.5L210.0 28.7L210.4 28.0L211.4 27.6L212.2 27.7L213.5 28.8L214.9 28.9L215.2 29.6L214.8 30.5L215.2 31.4L214.8 32.5L214.3 33.7L214.6 34.5L214.9 35.1L214.5 36.1L214.6 36.9L215.8 37.9L217.8 38.7L218.0 39.5L218.1 40.2L218.5 40.8L218.9 41.5L218.8 42.8L218.3 43.5L217.3 44.7L218.9 47.0L220.2 48.8L220.8 49.4L221.6 49.5L223.2 48.8L223.4 51.3L223.0 52.4L222.6 53.1L222.4 54.2L222.6 55.4L222.9 56.2L223.3 58.0L223.4 58.7L224.0 59.7L225.1 60.4L226.2 61.0L227.8 62.1L228.0 62.7L228.6 63.5L229.1 64.2L229.7 64.7L232.7 67.5L233.8 68.3L234.5 67.0L234.4 65.9L234.4 64.6L235.2 64.1L236.8 64.5L237.7 64.6L238.8 63.0L238.8 62.3L239.1 61.1L239.7 60.6L241.3 60.0L241.9 59.4L243.4 58.7L244.1 58.5L244.6 58.0L245.3 55.9L246.0 55.5L246.8 55.4L247.8 53.4L247.4 52.8L247.4 52.1L248.9 51.0L249.7 51.3L250.5 51.3L251.2 50.8L253.0 50.6L253.3 51.3L254.0 51.7L254.6 53.0L255.4 53.0L256.2 52.8L257.3 53.0L257.7 53.6L257.1 54.7L256.0 55.0L254.9 55.9L254.7 56.6L254.7 57.8L254.3 59.0L253.5 59.4L253.3 60.3L253.7 61.4L254.0 62.1L253.9 63.1L253.4 64.7L252.7 65.9L252.0 66.3L251.2 67.2L250.8 67.8L250.5 68.4L250.3 69.4L250.7 70.0L251.0 71.7L250.9 72.5L250.7 73.2L252.3 73.0L252.6 73.6L252.7 75.0L253.0 75.8L253.5 76.6L254.0 77.2L255.6 77.2L256.7 77.0L257.4 76.7L258.1 76.9L259.0 77.0L259.9 76.8L260.5 76.0L261.3 75.8L261.9 76.7L262.0 77.5L262.3 79.8L262.7 80.6L263.4 81.9L263.5 82.6L263.6 83.5L264.8 85.0L265.7 84.9L266.7 85.0L267.6 85.2L268.4 86.0L269.7 86.6L270.4 86.2L270.5 85.2L270.4 84.5L270.7 82.6L271.9 82.0L272.6 81.9L273.0 81.2L274.5 81.2L275.3 81.3L276.0 80.6L278.6 80.1L279.3 80.1L280.4 79.3L280.9 78.8L281.1 77.9L281.4 77.2L282.4 76.2L283.1 75.7L283.9 76.2L284.7 77.0L285.9 77.1L288.6 77.5L290.0 77.5L290.7 77.7L291.0 78.6L291.0 79.7L291.5 81.7L294.0 82.1L295.0 81.5L296.2 80.5L296.9 80.3L297.7 79.4L297.8 78.5L298.4 77.8L299.4 76.9L300.0 77.7L300.2 78.4L300.9 78.8L302.2 79.1L302.8 80.0L302.8 80.9L303.1 82.2L303.5 82.9L303.8 83.5L304.2 85.7L303.9 87.6L304.4 88.5L304.6 90.4L304.4 91.6L303.8 92.7L304.3 93.4L304.5 94.1L304.5 95.6L304.3 96.9L303.9 97.9L303.8 99.1L304.0 99.9L304.5 100.7L304.3 101.6L305.0 102.1L306.3 103.1L306.4 104.7L306.1 105.6L305.9 107.0L306.2 108.0L307.2 110.4L307.5 111.1L307.2 112.0L307.7 114.6L309.2 116.8L311.2 118.1L312.0 118.7L312.6 119.3L314.0 119.3L314.9 119.3L315.9 119.7L316.6 119.9L317.4 119.8L318.5 119.9L320.5 120.3L320.7 121.3L322.5 122.6L324.1 121.3L325.2 121.7L329.5 121.2L330.5 121.1L332.9 121.5L333.8 121.6L335.0 125.2L335.1 126.2L335.3 127.2L335.8 128.0L336.1 130.2L335.8 131.0L335.2 131.8L335.2 133.7L335.5 134.3L336.2 134.8L337.2 135.0L338.1 135.2L338.7 135.5L339.6 136.1L340.7 136.3L341.8 136.1L342.7 135.9L343.7 135.8L344.7 135.9L345.4 136.2L345.8 136.8L347.0 136.7L347.9 136.6L349.0 137.2L350.0 137.8L350.7 138.3L351.6 138.5L352.9 138.7L353.5 139.3L353.6 140.1L353.5 140.9L353.3 142.0L353.5 142.6L353.9 143.4L354.6 143.6L355.6 143.9L356.5 144.9L357.3 147.2L357.8 148.6L358.0 149.7L357.3 150.6L356.5 151.3L356.6 152.5L357.1 153.0L358.0 156.0L358.1 156.9L358.1 158.2L357.6 159.2L357.4 159.9L357.3 160.7L356.5 161.4L356.1 162.5L355.3 164.3L355.1 165.5L355.4 166.4L355.5 167.6L354.8 168.6L354.6 169.8L353.9 170.6L352.9 170.6L352.2 170.4L350.9 170.0L348.5 170.0L345.8 170.8L345.1 171.3L344.6 172.0L343.2 173.0L342.6 174.1L342.1 175.6L342.3 176.5L341.2 177.6L340.2 177.6L339.3 177.7L337.0 179.4L337.0 180.9L335.7 181.4L334.0 181.5L332.9 182.0L331.5 183.2L330.5 184.1L329.9 185.4L329.3 186.8L329.1 188.0L329.0 189.8L329.3 190.7L330.0 191.1L331.4 191.7L332.3 192.7L332.8 194.1L333.0 195.5L331.7 196.9L330.5 198.5L329.7 199.6L328.5 201.0L327.8 202.5L328.3 203.9L329.4 205.3L329.9 205.8L330.9 206.7L331.8 208.1L333.1 209.5L334.1 210.9L334.8 212.3L335.4 213.7L335.4 215.1L334.9 216.5L334.5 217.2L333.1 218.6L332.0 219.5L330.9 220.3L330.2 220.7L328.4 221.8L326.6 222.8L325.7 223.4L324.8 224.3L323.5 226.3L323.3 227.6L323.2 229.1L323.5 230.4L325.0 232.3L325.5 231.6L328.0 229.1L329.0 228.2L329.8 228.0L330.6 228.2L331.2 229.1L331.9 229.9L333.0 230.5L333.9 230.9L334.6 230.7L336.8 229.1L337.4 227.7L338.2 227.3L339.1 227.1L339.8 227.2L340.0 228.4L340.1 229.4L340.7 230.6L340.3 231.9L339.5 233.0L339.6 235.6L338.9 236.7L338.7 238.4L338.3 240.3L337.5 242.0L337.3 243.0L337.2 243.9L337.3 245.3L337.3 247.3L336.9 248.0L336.7 250.7L336.9 251.3L337.4 251.9L337.9 253.3L337.4 254.0L336.7 254.4L335.8 254.8L335.5 255.7L335.2 256.7L334.4 257.5L333.3 257.7L332.5 257.6L332.4 259.0L332.5 259.8L333.2 261.2L334.0 261.7L334.7 262.0L336.1 262.8L336.4 263.9L337.5 264.9L338.5 265.4L340.0 266.3L341.6 264.4L342.4 264.5L343.7 264.9L346.0 264.6L347.1 264.0L347.5 263.5L347.5 262.8L347.5 261.7L348.0 260.9L349.1 260.6L350.1 260.4L351.5 259.7L352.4 259.1L353.2 258.1L353.4 257.3L354.1 257.5L355.6 257.9L355.9 258.8L356.8 259.4L357.5 259.2L358.2 259.3L358.7 260.2L359.7 261.0L360.5 260.8L361.2 260.6L362.7 262.1L364.8 264.3L365.6 264.7L366.3 264.6L367.2 264.5L367.5 265.3L368.3 267.8L368.9 268.4L369.5 268.7L370.2 268.7L371.3 268.3L372.2 267.9L372.8 268.1L373.1 269.1L373.3 269.9L374.0 270.6L375.2 271.4L376.1 272.0L376.9 272.8L377.5 273.4L378.5 273.9L379.8 274.9L380.5 275.6L381.6 276.8L383.0 277.0L383.3 277.8L384.0 278.5L384.4 279.2L383.7 280.2L383.6 280.9L384.9 281.6L385.8 281.8L386.5 282.5L387.8 282.2L390.1 281.5L390.9 281.1L392.1 281.3L394.5 281.8L396.4 282.2L397.7 282.1L398.6 281.8L399.2 281.2L400.9 280.5L401.6 280.9L402.2 281.5L402.3 282.2L403.0 282.4L404.5 282.8L405.1 284.1L405.9 284.4L406.7 284.4L408.7 285.1L410.4 285.7L411.8 285.5L412.5 284.9L412.9 283.9L413.3 283.2L414.1 283.2L414.8 283.6L415.7 284.0L416.9 285.4L417.2 287.0L418.2 287.5L420.1 290.6L420.1 291.3L422.1 291.8L423.9 292.6L425.8 292.3L427.1 292.7L428.1 293.2L428.4 294.1L429.2 294.9L429.9 295.5L430.8 295.8L430.8 296.7L430.2 297.4L429.8 298.5L430.0 299.3L429.2 299.9L429.1 300.7L427.8 301.3L426.7 301.2L425.3 301.5L423.7 301.5L422.8 301.3L421.6 301.6L420.3 301.7L419.7 301.5L418.8 301.4L417.6 302.7L417.7 303.8L417.2 304.5L416.6 304.8L415.4 305.0L414.6 305.1L414.2 305.9L414.3 306.8L413.9 307.5L412.9 308.5L412.1 309.0L411.7 310.1L411.1 311.1L410.5 311.5L409.9 311.2L409.3 311.6L409.0 312.3L408.3 313.1L407.8 313.6L406.8 314.2L404.8 315.2L404.0 315.1L403.0 315.0L403.0 316.1L403.0 317.0L402.9 318.0L403.1 319.0L404.2 319.3L405.1 319.0L407.7 319.4L408.1 320.7L409.0 320.9L409.8 321.5L410.0 322.6L410.1 323.4L410.9 324.5L412.0 325.6L413.7 326.7L414.6 327.0L415.6 327.0L416.0 327.9L415.9 328.7L415.5 329.6L414.9 330.2L414.6 331.9L414.8 333.0L415.1 333.8L415.5 335.0L415.5 336.1L415.5 337.3L415.2 338.6L415.5 339.8L416.2 340.6L416.7 341.8L416.9 342.7L416.9 343.8L416.4 344.5L415.6 344.5L414.1 345.4L413.7 346.4L413.2 347.9L413.1 348.7L413.1 349.6L412.6 351.6L412.2 352.5L411.8 353.5L411.3 355.2L410.1 358.1L410.5 359.1L410.3 360.0L409.7 360.3L409.0 360.7L408.3 361.6L408.1 363.0L408.3 363.9L409.0 366.5L406.4 366.9L405.3 367.0L404.4 366.8L403.6 367.0L403.1 367.5L403.5 369.3L402.9 370.8L403.0 372.1L403.2 373.1L402.8 373.9L402.4 376.0L402.6 377.2L402.8 377.9L403.9 380.4L403.2 381.5L403.2 382.9L403.6 383.8L404.0 384.9L403.7 385.7L404.2 386.9L404.6 388.1L405.2 389.7L405.6 390.3L405.7 391.4L405.5 392.9L404.8 393.5L403.8 393.1L402.9 393.6L402.1 394.2L401.4 394.9L400.7 394.9L399.9 395.1L399.8 395.8L399.9 397.1L400.7 398.2L401.3 398.8L401.7 399.8L401.7 401.1L402.0 401.7L402.8 402.9L403.2 404.4L403.1 406.4L403.0 407.5L402.6 408.6L402.3 409.4L402.3 410.3L401.5 411.4L400.8 412.4L399.9 414.2L399.5 415.3L399.3 416.0L399.0 417.4L399.0 421.7L399.2 422.7L399.5 423.6L399.7 424.4L399.6 425.8L398.8 427.3L398.1 427.1L396.9 428.2L396.2 428.6L395.3 429.8L395.4 430.8L395.0 431.7L394.6 432.3L394.5 433.4L394.5 434.3L393.7 435.6L393.0 437.3L393.0 438.2L392.8 438.8L392.5 439.7L391.4 440.1L391.0 439.5L390.0 439.2L388.1 441.9L386.9 444.2L385.7 445.5L385.7 446.3L385.7 447.4L385.5 449.4L385.0 450.2L384.4 450.9L383.7 451.3L383.0 451.5L382.5 452.4L382.3 454.1L382.5 455.8L382.2 456.6L380.6 458.0L379.9 458.1L378.9 457.7L376.3 457.7L374.8 457.8L373.3 456.5L372.4 456.6L371.6 456.3L370.6 455.3L370.2 454.1L369.6 453.5L367.7 452.1L366.3 451.6L365.2 451.4L363.1 451.0L362.4 450.8L361.6 450.3L361.4 450.9L361.4 451.6L362.1 452.6L363.3 454.2L364.3 455.2L364.6 455.9L364.4 457.0L364.2 458.2L363.7 461.2L363.4 463.2L363.2 464.0L363.6 464.9L364.1 466.1L364.1 466.9L363.8 467.6L363.5 469.0L363.7 469.8L363.6 471.9L362.9 472.9L362.2 473.5L360.6 474.4L358.8 475.6L357.8 475.7L357.1 476.5L355.7 476.9L354.6 477.1L354.0 476.7L351.4 476.3L352.6 477.3L352.8 478.2L353.1 479.6L354.3 481.1L354.3 481.8L354.0 483.3L354.2 483.9L353.0 483.1L352.0 482.3L351.2 482.0L350.1 482.3L349.4 482.4L348.8 481.9L347.4 481.3L346.2 481.3L345.2 482.1L344.7 482.9L343.5 484.5L342.5 485.8L342.0 486.5L341.7 487.1L342.1 488.2L342.6 489.3L342.4 490.3L342.7 491.2L343.1 491.8L342.3 492.3L340.8 493.5L339.2 494.6L338.5 494.4L337.7 493.1L336.6 492.6L336.0 492.2L334.6 491.3L333.8 490.9L332.2 490.5L331.7 489.9L330.5 489.1L329.7 489.2L328.9 489.2L328.0 488.9L327.2 488.3L326.5 488.1L325.2 488.8L324.4 490.1L324.3 490.9L323.6 491.7L322.7 492.0L321.2 492.2L320.2 492.0L319.2 491.0L318.5 490.6L317.9 490.2L317.2 489.5L316.4 489.6L313.5 490.1L312.4 489.8L311.7 489.7L311.1 490.2L311.3 490.9L310.5 491.6L309.8 492.0L309.1 492.5L307.9 493.7L307.8 494.9L308.3 495.3L308.6 496.8L308.2 497.7L307.7 499.0L308.4 500.0L308.6 500.9L308.5 501.9L308.2 502.7L307.4 502.5L306.7 502.4L305.8 503.2L305.0 504.3L305.1 505.6L304.6 506.5L303.8 506.0L302.8 506.1L302.0 506.7L301.5 507.5L301.3 508.5L300.6 508.8L298.9 509.8L296.7 509.2L295.9 509.5L294.5 510.7L293.4 510.6L292.5 511.1L290.6 511.1L289.0 511.3L288.0 511.3L287.5 511.9L287.3 512.7L287.1 513.9L286.2 515.3L285.6 516.0L285.2 516.6L285.2 517.3L285.6 518.1L286.5 518.4L287.6 519.3L288.8 520.6L289.1 521.5L289.7 522.4L290.3 523.3L289.2 524.4L287.6 524.1L286.1 524.4L285.5 525.0L285.1 526.2L284.2 526.5L283.4 526.7L283.0 527.8L283.1 528.5L283.0 529.3L282.5 530.0L282.2 530.7L281.3 530.5L280.7 530.2L277.8 530.3L277.1 530.6L276.5 531.0L275.9 529.9L275.3 529.1L274.5 529.0L272.5 530.4L271.7 531.6L271.1 532.8L269.8 533.3L269.0 533.8L268.4 534.4L267.9 535.0L266.8 535.6L266.0 535.6L264.7 535.8L263.4 536.1L263.0 536.9L261.7 537.9L258.4 538.1L257.2 537.9L257.9 540.7L258.5 542.0L259.1 542.8L259.2 544.0L258.8 545.0L258.3 545.7L257.9 546.9L257.5 548.0L256.4 549.5L255.8 550.1L255.3 550.6L255.2 551.5L254.6 552.0L253.9 551.7L253.0 550.9L252.4 549.9L251.8 549.4L252.0 548.6L252.0 547.9L251.7 547.1L251.1 546.8L250.3 546.2L250.0 545.1L249.2 544.4L247.9 544.2L246.3 543.9L245.3 543.4L244.6 542.4L244.2 541.7L243.6 540.9L242.5 541.2L242.3 542.2L241.1 542.6L239.5 542.1L238.7 541.6L238.5 540.8L238.1 540.2L235.9 540.1L235.2 539.4L233.5 537.8L232.3 538.1L230.5 537.8L230.0 537.2L230.1 536.3L230.5 535.4L230.4 534.6L229.7 534.0L228.9 532.9L229.0 531.6L228.2 530.2L227.6 529.5L226.5 529.2L225.8 529.3L224.4 529.3L223.5 528.8L222.4 528.1L221.6 527.9L220.7 527.5L220.3 526.7L220.2 525.9L220.0 525.3L219.1 525.3L218.2 525.0L216.9 525.3L216.0 525.6L215.4 525.2L213.9 524.7L213.0 524.6L212.6 524.0L213.7 522.8L213.1 522.4L212.3 522.4L211.4 522.6L210.7 522.5L210.2 522.0L209.4 521.9L207.1 522.9L205.8 523.6L204.8 523.7L203.9 523.4L203.1 523.0L202.3 523.0L201.8 522.2L201.1 522.0L199.9 521.8L199.0 521.9L198.9 522.6L197.5 523.9L196.8 524.0L194.5 526.2L194.3 527.7L194.9 528.4L195.7 528.4L196.3 528.9L195.7 529.8L195.0 530.5L194.2 532.7L193.5 533.1L192.9 532.7L192.2 531.8L191.7 531.4L190.9 531.1L188.6 533.0L187.6 534.0L186.9 533.8L185.3 533.2L184.6 533.3L182.7 534.6L181.6 535.0L180.6 535.8L179.6 536.4L177.1 536.9L176.3 537.0L175.6 537.2L174.7 538.1L173.8 538.6L172.2 538.4L170.9 537.7L170.5 537.0L170.0 536.5L169.3 536.1L167.0 535.6L166.3 535.7L165.1 535.9L164.2 536.5L163.4 536.1L162.4 535.8L161.8 536.1L159.4 536.9L157.6 538.6L155.7 539.5L153.0 540.3L150.2 541.3L148.9 541.7L145.0 542.8L142.4 544.4L137.8 547.2L135.7 548.9L135.3 547.6L135.1 546.5L134.5 545.7L134.5 545.0L134.5 544.3L133.9 543.5L133.5 541.5L133.6 540.8L133.7 540.1L132.8 538.7L132.3 538.0L130.3 536.7L128.9 535.8L127.4 535.7L126.4 535.9L125.3 536.1L124.1 536.3L122.4 536.6L122.0 535.8L121.8 534.9L121.5 533.6L120.7 530.6L119.6 529.9L118.0 530.8L118.6 531.9L119.8 532.8L118.7 532.6L118.0 530.8L117.0 531.4L115.3 529.1L115.5 528.4L114.9 527.0L113.6 525.8L113.0 525.0L111.7 522.6L110.8 521.0L110.3 520.2L109.0 517.8L109.7 517.4L109.2 516.1L108.4 516.6L107.6 516.6L105.1 515.6L106.7 516.2L107.5 516.3L108.2 514.7L105.7 513.0L104.8 512.6L104.1 514.3L103.8 515.1L102.3 514.5L102.8 513.2L103.6 513.2L103.9 512.5L103.0 511.8L100.4 511.8L99.3 511.7L99.0 512.4L98.0 512.8L97.1 511.7L96.6 510.7L95.8 509.7L94.4 507.9L96.9 505.7L97.6 505.6L100.3 505.2L100.2 504.4L99.6 502.5L99.5 501.0L97.8 499.2L94.0 499.1L91.3 499.2L89.6 499.2L86.0 499.2L85.3 499.1L84.9 498.5L84.9 497.8L84.9 497.1L83.0 495.9ZM87.4 488.9L91.6 487.3L91.9 485.6L90.8 485.7L90.1 486.0L89.4 486.2L89.0 484.2L89.9 483.9L89.5 481.4L89.5 479.9L90.0 478.9L90.0 477.9L90.3 476.1L90.6 474.7L91.0 473.8L91.7 472.0L91.8 471.2L91.6 470.2L90.8 470.4L90.1 469.9L89.3 468.7L88.1 467.6L88.0 466.8L88.4 465.4L90.2 462.4L91.2 461.3L92.0 460.5L92.7 460.9L93.4 460.3L93.6 459.3L95.5 458.2L96.8 459.1L97.0 460.3L99.0 460.5L99.7 460.0L99.8 458.6L101.2 457.1L102.0 456.9L103.0 456.9L104.2 456.3L106.2 454.9L103.8 454.4L102.9 452.8L102.4 451.4L101.2 450.9L100.3 451.2L99.6 451.6L98.9 452.0L98.2 452.4L97.3 452.0L96.3 451.8L95.5 451.7L96.5 450.6L97.6 450.4L99.3 449.5L100.3 447.6L99.8 446.3L99.7 444.8L99.4 443.9L98.6 443.3L98.7 442.5L99.2 441.7L99.8 440.7L100.1 438.9L100.3 437.6L100.5 436.0L100.9 435.2L101.2 434.5L100.4 435.6L99.8 437.4L99.4 438.9L99.4 440.1L97.5 443.1L95.9 444.7L94.7 444.6L93.9 446.4L92.2 446.4L89.0 446.2L88.0 446.0L85.3 445.3L84.4 445.5L84.2 446.2L84.3 446.9L84.3 447.8L83.3 449.7L82.8 450.8L82.2 451.6L80.9 452.4L80.2 452.3L79.3 452.6L79.5 453.8L79.2 454.6L79.0 455.3L78.6 456.0L78.0 456.7L77.0 457.1L76.3 457.5L75.9 458.2L75.6 459.2L74.1 459.9L73.3 459.7L72.6 459.4L71.5 459.5L70.1 461.0L70.1 462.2L71.1 462.8L69.0 464.2L69.1 463.4L67.8 463.1L66.9 463.5L66.9 464.5L66.4 465.6L65.3 465.9L64.6 466.1L65.1 466.6L66.1 468.1L68.9 470.6L70.5 472.5L75.6 477.4L79.8 481.5L80.5 482.1L87.3 488.8L87.4 488.9ZM118.6 405.7L119.1 404.6L120.3 404.7L121.1 404.8L123.3 403.9L124.5 403.4L123.5 403.6L121.3 404.6L120.3 404.4L119.5 404.3L117.7 404.8L116.5 406.2L114.8 406.7L114.6 407.6L115.3 409.6L116.3 410.5L116.8 409.9L116.4 409.0L116.8 408.4L116.7 407.4L117.3 406.7L118.0 406.5L118.5 405.9L118.6 405.7Z" fill="#2b3450" stroke="#4a5675" stroke-width="0.8" fill-rule="evenodd"/><path d="M312.7 371.1L313.4 371.7L314.1 372.0L315.3 373.4L316.2 374.4L317.4 375.6L317.6 376.5L318.0 377.4L319.0 377.9L319.6 377.8L320.7 378.0L321.2 378.5L321.8 379.1L323.0 379.2L323.9 379.0L325.7 378.8L326.1 379.3L326.9 380.7L327.2 381.4L327.5 381.9L327.8 382.4L329.1 382.4L329.7 382.7L330.1 383.3L329.5 384.1L329.2 384.7L329.6 385.4L330.0 385.8L330.1 386.5L330.1 387.4L331.6 388.4L332.4 388.6L333.4 388.7L334.5 388.9L335.3 389.2L335.7 389.7L335.7 390.3L335.7 392.0L335.8 393.1L335.2 394.6L334.8 395.4L334.7 396.1L332.9 398.0L331.7 399.5L330.4 404.1L330.6 405.9L331.0 407.1L331.2 407.7L331.4 408.8L331.4 409.5L331.4 410.2L332.5 412.1L333.0 412.6L332.5 413.8L333.0 414.5L332.6 415.3L331.6 415.9L331.1 416.2L330.4 416.6L329.3 417.4L329.3 420.5L329.5 422.0L330.0 422.7L330.3 424.5L330.2 425.2L330.4 426.1L330.7 428.4L331.0 429.4L331.2 430.8L330.7 431.5L330.9 432.3L331.1 432.9L330.9 433.7L330.3 433.8L329.7 434.7L328.5 436.3L327.7 437.2L327.2 438.2L326.8 438.9L326.7 439.7L327.4 439.9L328.0 440.0L328.6 440.5L329.1 441.7L329.7 442.8L330.0 443.4L330.7 443.5L332.1 443.3L332.8 443.2L333.2 442.7L334.0 442.5L335.2 442.8L336.0 443.1L337.9 442.5L338.8 442.1L339.4 441.7L339.6 441.0L339.9 440.4L341.5 441.6L342.2 442.2L342.8 442.9L343.2 443.9L343.6 444.5L344.1 443.7L344.7 443.1L345.2 442.7L345.8 442.1L344.7 439.7L344.2 439.3L344.2 438.4L345.3 437.1L345.9 437.1L346.4 437.6L347.0 437.9L347.6 437.9L348.8 437.9L350.1 437.4L350.7 437.0L351.4 436.8L351.9 437.4L352.3 438.8L352.5 439.5L353.6 440.0L353.9 440.6L354.4 441.5L355.3 442.0L356.3 442.8L356.8 443.3L357.1 444.3L357.2 445.3L357.1 446.1L357.5 446.9L358.5 447.6L360.3 446.8L360.8 446.5L361.6 446.2L362.3 446.4L362.9 447.3L362.4 448.6L361.7 450.1L361.4 450.7L361.3 451.5L362.1 452.6L363.3 454.2L364.3 455.2L364.6 455.8L364.5 456.5L364.2 458.2L363.7 461.2L363.4 463.2L363.2 464.0L363.6 464.9L364.1 466.1L364.1 466.7L363.9 467.4L363.5 469.0L363.7 469.8L363.8 470.4L363.6 471.9L362.9 472.9L362.2 473.5L360.6 474.4L358.8 475.6L357.8 475.7L357.4 476.2L356.5 476.8L355.7 476.9L355.0 477.1L354.3 477.0L353.4 476.6L351.4 476.3L352.6 477.3L352.8 478.2L353.1 479.6L354.3 481.1L354.3 481.8L354.0 483.3L354.2 483.9L353.0 483.1L352.0 482.3L351.2 482.0L350.1 482.3L349.4 482.4L348.8 481.9L347.4 481.3L346.2 481.3L345.2 482.1L344.7 482.9L343.5 484.5L342.5 485.8L342.0 486.5L341.7 487.1L342.1 488.2L342.5 488.8L342.5 489.6L342.4 490.3L342.7 491.2L343.1 491.8L342.3 492.3L340.8 493.5L339.2 494.6L338.5 494.4L337.7 493.1L336.6 492.6L336.0 492.2L334.6 491.3L333.8 490.9L332.2 490.5L331.7 489.9L330.5 489.1L329.7 489.2L328.9 489.2L328.2 489.0L327.5 488.6L327.1 488.2L325.2 488.8L324.4 490.1L324.3 490.9L324.1 491.5L322.7 492.0L321.2 492.2L320.2 492.0L319.2 491.0L318.5 490.6L317.9 490.2L317.2 489.5L319.3 488.6L319.9 488.5L320.6 488.4L321.6 487.8L322.3 487.5L323.2 486.8L324.1 485.6L324.4 484.9L323.5 484.3L323.5 483.6L324.0 483.5L324.8 483.4L325.3 482.7L325.9 481.0L325.6 480.3L326.5 478.9L326.2 477.4L326.3 476.3L325.9 474.4L325.5 473.5L325.2 473.0L325.0 472.3L326.0 471.4L326.1 470.7L325.5 469.6L324.6 469.7L323.9 469.5L322.8 468.6L322.4 468.1L322.6 467.3L322.4 466.2L321.7 465.8L321.2 465.1L321.1 464.0L320.9 462.8L320.3 462.3L319.5 462.4L317.5 462.1L315.2 461.5L314.0 461.2L313.4 461.1L311.7 460.3L310.0 459.9L309.3 460.1L308.2 460.0L306.9 458.4L306.4 457.2L305.9 456.2L305.4 455.2L305.0 454.7L303.4 453.2L302.5 453.0L300.4 453.0L299.3 453.1L298.4 453.6L298.1 453.1L298.0 452.3L297.4 451.7L296.5 451.5L295.9 451.7L295.0 451.8L294.4 451.5L293.6 450.4L293.5 449.7L293.4 448.8L293.0 448.1L292.8 446.7L293.1 445.6L293.6 445.0L294.0 443.4L293.9 441.5L293.5 439.8L293.0 439.2L292.2 439.5L291.6 440.0L290.9 440.5L290.3 440.7L288.5 440.4L287.1 440.3L286.1 440.2L284.8 439.9L284.3 439.6L281.9 438.6L281.0 438.4L281.1 437.3L281.6 436.9L283.1 434.8L282.7 434.2L282.2 433.7L281.7 432.9L281.2 432.2L280.3 431.2L279.8 431.6L278.8 432.4L277.6 432.8L276.8 432.6L275.9 432.3L274.6 431.6L274.0 431.5L272.7 430.3L271.5 429.6L270.7 428.4L270.5 427.5L270.1 426.4L269.7 425.9L268.5 425.1L267.8 424.6L268.1 423.6L268.5 422.5L268.8 421.7L269.0 420.3L269.2 419.1L269.3 417.9L268.8 417.5L268.2 416.4L268.5 414.2L268.9 413.7L269.8 412.9L270.4 412.6L270.1 411.8L269.8 411.1L269.8 409.4L270.2 408.9L271.0 408.5L271.2 407.7L270.6 405.5L271.0 404.8L271.6 404.6L272.5 404.1L273.8 403.0L273.6 402.1L273.1 401.8L272.0 400.7L271.8 400.1L271.7 399.3L271.1 398.9L271.9 397.4L272.5 397.4L273.2 397.8L274.1 397.6L274.9 397.1L275.3 396.6L275.9 396.1L276.4 394.9L276.1 394.3L275.4 393.8L276.0 393.0L276.4 392.3L276.5 391.7L277.1 391.4L278.5 391.0L278.7 390.2L278.4 389.6L278.3 387.8L279.5 388.1L280.3 388.1L280.8 387.7L281.2 386.8L281.6 386.4L282.2 386.0L282.9 386.4L285.7 386.7L287.0 386.3L287.4 385.7L287.9 384.9L289.8 383.4L290.5 383.5L291.4 383.4L292.0 382.3L293.7 380.8L294.5 380.7L296.3 379.2L296.4 378.5L296.4 377.9L296.9 377.1L297.7 376.9L299.2 376.0L300.2 374.8L300.6 373.5L300.9 372.9L301.8 372.1L302.5 371.7L303.2 371.3L304.8 373.1L305.4 373.6L307.6 372.4L308.5 371.6L309.3 371.2L309.9 371.3L310.5 371.1L311.6 370.2L312.6 370.7L312.7 371.1Z" fill="#ffcf5a" stroke="#b8860b" stroke-width="0.8" fill-rule="evenodd"/></svg>
